<?xml version="1.0" encoding="UTF-8" standalone="no"?>
<!-- Created with Inkscape (http://www.inkscape.org/) -->

<svg
   width="48px"
   height="48px"
   id="svg2985"
   version="1.1"
   inkscape:version="1.1.1 (3bf5ae0d25, 2021-09-20, custom)"
   sodipodi:docname="delta-v7-pathed-unread.svg"
   inkscape:export-filename="/home/bpetersen/projects/messenger-android/MessengerProj/src/main/res/drawable-xhdpi/ic_launcher.png"
   inkscape:export-xdpi="183.83"
   inkscape:export-ydpi="183.83"
   xmlns:inkscape="http://www.inkscape.org/namespaces/inkscape"
   xmlns:sodipodi="http://sodipodi.sourceforge.net/DTD/sodipodi-0.dtd"
   xmlns:xlink="http://www.w3.org/1999/xlink"
   xmlns="http://www.w3.org/2000/svg"
   xmlns:svg="http://www.w3.org/2000/svg"
   xmlns:rdf="http://www.w3.org/1999/02/22-rdf-syntax-ns#"
   xmlns:cc="http://creativecommons.org/ns#"
   xmlns:dc="http://purl.org/dc/elements/1.1/">
  <defs
     id="defs2987">
    <linearGradient
       id="linearGradient4409">
      <stop
         style="stop-color:#f9f9f9;stop-opacity:1"
         offset="0"
         id="stop4411" />
      <stop
         style="stop-color:#cccccc;stop-opacity:0;"
         offset="1"
         id="stop4413" />
    </linearGradient>
    <linearGradient
       id="linearGradient4399">
      <stop
         style="stop-color:#f9f9f9;stop-opacity:1;"
         offset="0"
         id="stop4401" />
      <stop
         style="stop-color:#f9f9f9;stop-opacity:0;"
         offset="1"
         id="stop4403" />
    </linearGradient>
    <linearGradient
       id="linearGradient4375">
      <stop
         style="stop-color:#364e59;stop-opacity:1;"
         offset="0"
         id="stop4377" />
      <stop
         style="stop-color:#364e59;stop-opacity:0;"
         offset="1"
         id="stop4379" />
    </linearGradient>
    <linearGradient
       id="linearGradient4367">
      <stop
         style="stop-color:#dc000f;stop-opacity:1;"
         offset="0"
         id="stop4369" />
      <stop
         style="stop-color:#00ff00;stop-opacity:0;"
         offset="1"
         id="stop4371" />
    </linearGradient>
    <linearGradient
       id="linearGradient4359">
      <stop
         style="stop-color:#dc000f;stop-opacity:1;"
         offset="0"
         id="stop4361" />
      <stop
         style="stop-color:#000000;stop-opacity:0;"
         offset="1"
         id="stop4363" />
    </linearGradient>
    <linearGradient
       inkscape:collect="always"
       xlink:href="#linearGradient4375"
       id="linearGradient4381"
       x1="31.957268"
       y1="29.751493"
       x2="-45.041405"
       y2="-18.591616"
       gradientUnits="userSpaceOnUse"
       gradientTransform="matrix(0.93766393,0,0,0.93766393,1.6980095,1.5823901)" />
    <linearGradient
       inkscape:collect="always"
       xlink:href="#linearGradient4409"
       id="linearGradient4415"
       x1="16.345125"
       y1="3.8388948"
       x2="36.001561"
       y2="24.359164"
       gradientUnits="userSpaceOnUse" />
  </defs>
  <sodipodi:namedview
     id="base"
     pagecolor="#ffffff"
     bordercolor="#666666"
     borderopacity="1.0"
     inkscape:pageopacity="0.0"
     inkscape:pageshadow="2"
     inkscape:zoom="6.4794168"
     inkscape:cx="15.742158"
     inkscape:cy="16.127995"
     inkscape:current-layer="layer1"
     showgrid="true"
     inkscape:grid-bbox="true"
     inkscape:document-units="px"
     inkscape:snap-global="true"
     inkscape:snap-bbox="true"
     inkscape:bbox-nodes="true"
     inkscape:bbox-paths="true"
     inkscape:snap-bbox-edge-midpoints="true"
     inkscape:window-width="1366"
     inkscape:window-height="731"
     inkscape:window-x="0"
     inkscape:window-y="0"
     inkscape:window-maximized="1"
     inkscape:pagecheckerboard="0"
     showguides="false"
     inkscape:guide-bbox="true"
     inkscape:snap-page="true"
     inkscape:snap-text-baseline="true"
     inkscape:snap-object-midpoints="true">
    <sodipodi:guide
       position="48,0"
       orientation="-0.70710678,-0.70710678"
       id="guide881" />
  </sodipodi:namedview>
  <metadata
     id="metadata2990">
    <rdf:RDF>
      <cc:Work
         rdf:about="">
        <dc:format>image/svg+xml</dc:format>
        <dc:type
           rdf:resource="http://purl.org/dc/dcmitype/StillImage" />
      </cc:Work>
    </rdf:RDF>
  </metadata>
  <g
     id="layer1"
     inkscape:label="Layer 1"
     inkscape:groupmode="layer">
    <path
       id="path905"
       style="fill:#ffffff;stroke:#8c8c8c;stroke-width:0.574;stroke-opacity:0.976471"
       d="m 46.336769,36.890575 c 0,5.214687 -4.225614,9.442938 -9.4403,9.446192 -1.191797,7.44e-4 -2.332206,-0.219263 -3.382543,-0.621407 -3.545395,-1.357429 -6.064517,-4.79011 -6.069537,-8.812997 -0.0065,-5.214683 4.213827,-9.448204 9.428505,-9.457965 5.214678,-0.0098 9.450832,4.207931 9.463846,9.422602"
       sodipodi:nodetypes="cssssc" />
    <path
       id="path2840"
       style="fill:#ffffff;fill-opacity:1;stroke:#000000;stroke-width:0.574;stroke-linejoin:round;stroke-miterlimit:4;stroke-dasharray:none;stroke-opacity:0.439216"
       d="m 45.115234,32.332031 c 0.734468,-2.181737 1.588129,-4.601696 1.628907,-8.316406 0,-12.549422 -10.179094,-22.7285156 -22.728516,-22.7285156 -12.549421,0 -22.7285156,10.1790936 -22.7285156,22.7285156 0,12.549422 10.1790946,22.728516 22.7285156,22.728516 4.743156,-0.11343 7.386069,-0.664405 9.328125,-1.148438"
       sodipodi:nodetypes="ccsscc" />
    <g
       style="font-style:normal;font-weight:normal;font-size:40px;line-height:125%;font-family:Sans;letter-spacing:0px;word-spacing:0px;fill:#000000;fill-opacity:1;stroke:none"
       id="text4383" />
    <g
       style="font-style:normal;font-weight:normal;font-size:40px;line-height:125%;font-family:Sans;letter-spacing:0px;word-spacing:0px;fill:#000000;fill-opacity:1;stroke:none"
       id="text4421" />
    <path
       inkscape:connector-curvature="0"
       id="path3799"
       d="M 24.137692,5.1730371 C 13.801266,5.2988213 5.417279,13.792411 5.417279,24.138174 c 0,10.345764 8.383987,18.635301 18.720413,18.509516 9.827724,-0.03951 7.516769,-5.489695 18.380082,-0.443187 -5.950849,-9.296115 0.201753,-10.533667 0.340336,-18.521947 0,-10.345766 -8.383989,-18.6353033 -18.720418,-18.5095189 z"
       style="fill:url(#linearGradient4381);fill-opacity:1;stroke:none"
       sodipodi:nodetypes="sscccs" />
    <g
       transform="matrix(1.1122373,0,0,0.89908874,0.1554435,-0.13757923)"
       style="font-style:normal;font-weight:normal;font-size:42.1059px;line-height:125%;font-family:Sans;letter-spacing:0px;word-spacing:0px;fill:#ffffff;fill-opacity:1;stroke:none"
       id="text3797">
      <path
         d="m 21.688854,23.636251 q -1.027975,-1.151333 -2.857771,-2.754974 -2.014832,-1.768118 -2.713855,-2.775534 -0.699024,-1.027975 -0.699024,-2.240986 0,-1.809237 1.68588,-2.837212 1.68588,-1.048535 4.399735,-1.048535 2.713855,0 4.728687,0.925178 2.035391,0.925177 2.035391,2.549379 0,0.781261 -0.493428,1.295249 -0.493428,0.513987 -1.151333,0.513987 -0.945737,0 -2.220426,-1.418606 -1.295249,-1.439165 -2.199868,-2.014832 -0.884059,-0.596225 -2.07651,-0.596225 -1.521404,0 -2.50826,0.678463 -0.966297,0.678464 -0.966297,1.726999 0,0.986857 0.801821,1.850356 0.801821,0.863499 4.132461,3.145605 3.556795,2.446581 5.01652,3.824068 1.480285,1.377487 2.405462,3.3512 0.925178,1.973713 0.925178,4.17358 0,3.865188 -2.734414,6.825757 -2.713855,2.94001 -6.352888,2.94001 -3.310081,0 -5.592187,-2.364344 -2.282105,-2.364343 -2.282105,-6.311769 0,-3.803509 2.50826,-6.352888 2.528819,-2.549379 6.208971,-3.083926 z m 0.904619,0.945737 q -5.900579,0.966297 -5.900579,8.100447 0,3.680152 1.459725,5.715543 1.480285,2.035391 3.433438,2.035391 2.035391,0 3.3512,-1.953153 1.315808,-1.973713 1.315808,-5.324913 0,-4.852044 -3.659592,-8.573315 z"
         style="font-family:'Times New Roman';-inkscape-font-specification:'Times New Roman';fill:#ffffff;fill-opacity:1"
         id="path4161" />
    </g>
    <path
       style="fill:#42a5f5;fill-opacity:1;stroke:#ffffff;stroke-width:2"
       id="path915"
       sodipodi:type="arc"
       sodipodi:cx="36.874645"
       sodipodi:cy="36.581619"
       sodipodi:rx="8.182107"
       sodipodi:ry="8.182107"
       sodipodi:start="0"
       sodipodi:end="6.2806895"
       sodipodi:open="true"
       sodipodi:arc-type="arc"
       d="m 45.056752,36.581619 a 8.182107,8.182107 0 0 1 -8.177002,8.182106 8.182107,8.182107 0 0 1 -8.187205,-8.171895 8.182107,8.182107 0 0 1 8.166785,-8.192303 8.182107,8.182107 0 0 1 8.197397,8.161671" />
  </g>
</svg>
