<?xml version="1.0" encoding="UTF-8" standalone="no"?>
<!-- Created with Inkscape (http://www.inkscape.org/) -->

<svg
   width="7.708725mm"
   height="6.6631317mm"
   viewBox="0 0 7.708725 6.6631316"
   version="1.1"
   id="svg5"
   inkscape:version="1.2.1 (9c6d41e410, 2022-07-14, custom)"
   sodipodi:docname="autocrypt-icon.svg"
   xml:space="preserve"
   inkscape:export-filename="encryption-modes-screen-mock.png"
   inkscape:export-xdpi="183.83"
   inkscape:export-ydpi="183.83"
   xmlns:inkscape="http://www.inkscape.org/namespaces/inkscape"
   xmlns:sodipodi="http://sodipodi.sourceforge.net/DTD/sodipodi-0.dtd"
   xmlns="http://www.w3.org/2000/svg"
   xmlns:svg="http://www.w3.org/2000/svg"><sodipodi:namedview
     id="namedview7"
     pagecolor="#ffffff"
     bordercolor="#666666"
     borderopacity="1.0"
     inkscape:showpageshadow="2"
     inkscape:pageopacity="0.0"
     inkscape:pagecheckerboard="0"
     inkscape:deskcolor="#d1d1d1"
     inkscape:document-units="mm"
     showgrid="false"
     inkscape:zoom="0.82523699"
     inkscape:cx="335.05527"
     inkscape:cy="83.612345"
     inkscape:window-width="1920"
     inkscape:window-height="1053"
     inkscape:window-x="0"
     inkscape:window-y="0"
     inkscape:window-maximized="1"
     inkscape:current-layer="layer2"
     showguides="false"><sodipodi:guide
       position="50.037753,-29.871028"
       orientation="0,-1"
       id="guide1422"
       inkscape:locked="false" /><sodipodi:guide
       position="45.766143,24.130246"
       orientation="0,-1"
       id="guide1508"
       inkscape:locked="false" /><sodipodi:guide
       position="4.440163,2.3865005"
       orientation="0,-1"
       id="guide1510"
       inkscape:locked="false" /><sodipodi:guide
       position="48.681703,18.547589"
       orientation="1,0"
       id="guide3571"
       inkscape:locked="false" /><sodipodi:guide
       position="4.440163,2.3865005"
       orientation="1,0"
       id="guide3612"
       inkscape:locked="false" /><sodipodi:guide
       position="-3.4347169,-10.097624"
       orientation="0,-1"
       id="guide3655"
       inkscape:locked="false" /><sodipodi:guide
       position="13.942923,4.1384825"
       orientation="1,0"
       id="guide6366"
       inkscape:locked="false" /></sodipodi:namedview><defs
     id="defs2" /><g
     inkscape:label="Ebene 1"
     inkscape:groupmode="layer"
     id="layer1"
     transform="translate(-130.08242,-98.355678)" /><g
     inkscape:groupmode="layer"
     id="layer2"
     inkscape:label="Popup"
     transform="matrix(0.95402848,0,0,0.95402848,-114.03819,-74.836068)"
     style="display:inline"><g
       inkscape:label="Layer 1"
       id="layer1-3"
       transform="matrix(0.29623583,0,0,0.29623583,119.53332,78.44217)"
       style="fill:#4c6e7d;fill-opacity:1"><path
         style="fill:#4c6e7d;fill-opacity:1;stroke-width:0.264583"
         inkscape:connector-curvature="0"
         id="path120"
         d="M 14.07107,6.50108 V 7.30779 C 13.259064,6.79873 12.29942,6.50372 11.27072,6.50372 c -2.918618,0 -5.284522,2.36591 -5.284522,5.28479 0,2.91835 2.365904,5.28426 5.284522,5.28426 1.0287,0 1.988344,-0.29501 2.80035,-0.80354 v 0.80671 h 2.483909 V 6.50134 H 14.07107 Z m -0.106627,5.28425 c 0,1.48881 -1.207029,2.69558 -2.695575,2.69558 -1.48881,0 -2.695839,-1.20677 -2.695839,-2.69558 0,-1.48881 1.207029,-2.69557 2.695839,-2.69557 1.488546,0 2.695575,1.20676 2.695575,2.69557 z m 5.666052,0.0124 c 0,-1.46712 1.166813,-2.66092 2.620963,-2.7006 V 6.50104 c -2.897981,0.0177 -5.241661,2.37754 -5.241661,5.28716 0,2.9091 2.34368,5.26918 5.241661,5.28717 v -2.57651 c -1.454415,-0.04 -2.620963,-1.23322 -2.620963,-2.70113 z M 12.308945,3.51601 V 0.75825 h -1.307041 v 8e-4 C 4.923366,0.77495 0,5.70676 0,11.78926 0,17.8715 4.923102,22.8036 11.001904,22.81921 v 10e-4 h 9.355402 v -2.75802 h -9.326298 v 0 c -4.569354,0 -8.273256,-3.70363 -8.273256,-8.27299 0,-4.56935 3.704166,-8.27352 8.273256,-8.27352 v 0 h 1.277937 z" /><path
         style="fill:#4c6e7d;fill-opacity:1;stroke-width:0.264583"
         inkscape:connector-curvature="0"
         id="path122"
         d="M 27.27616,22.91371 V 0.66251 c 0,0 0,-0.66251 -0.663046,-0.66251 h -3.244056 c 0,0 -0.663046,0 -0.663046,0.66251 v 22.2512 c 0,0 0,0.66278 0.663046,0.66278 h 3.244056 c -2.65e-4,0 0.663046,0 0.663046,-0.66278 z m -7.522898,-0.095 2.497931,0.004 v -2.75696 l -3.611298,-0.004 z M 11.890375,3.51392 H 22.251193 V 0.75828 h -11.47101 z" /><path
         style="fill:#4c6e7d;fill-opacity:1;stroke-width:0.264583"
         inkscape:connector-curvature="0"
         id="path124"
         d="m 26.06966,6.50081 c 0,0 -0.529167,0 -0.529167,0.52917 v 9.50859 c 0,0 0,0.52917 0.529167,0.52917 h 1.2065 V 6.50081 Z" /></g></g></svg>
