<?xml version="1.0" encoding="UTF-8" standalone="no"?>
<svg
   height="24"
   width="24"
   version="1.1"
   id="svg826"
   sodipodi:docname="devices.svg"
   inkscape:version="1.1.1 (c3084ef, 2021-09-22)"
   xmlns:inkscape="http://www.inkscape.org/namespaces/inkscape"
   xmlns:sodipodi="http://sodipodi.sourceforge.net/DTD/sodipodi-0.dtd"
   xmlns="http://www.w3.org/2000/svg"
   xmlns:svg="http://www.w3.org/2000/svg">
  <defs
     id="defs830" />
  <sodipodi:namedview
     id="namedview828"
     pagecolor="#505050"
     bordercolor="#ffffff"
     borderopacity="1"
     inkscape:pageshadow="0"
     inkscape:pageopacity="0"
     inkscape:pagecheckerboard="1"
     showgrid="false"
     inkscape:zoom="7.1662053"
     inkscape:cx="17.094124"
     inkscape:cy="18.350019"
     inkscape:window-width="1383"
     inkscape:window-height="847"
     inkscape:window-x="44"
     inkscape:window-y="25"
     inkscape:window-maximized="0"
     inkscape:current-layer="svg826" />
  <path
     d="M 1.349439,20.520449 V 18.124072 H 3.6393097 V 5.0771351 q 0,-0.6656599 0.4659621,-1.1316219 0.465962,-0.4659621 1.1316221,-0.4659621 H 21.745263 v 1.597584 H 5.2368939 V 18.124072 h 6.2305781 v 2.396377 z m 12.754047,0 q -0.45265,0 -0.74554,-0.359457 -0.29289,-0.359456 -0.29289,-0.812106 V 7.7131492 q 0,-0.4526489 0.29289,-0.7455391 0.29289,-0.2928911 0.74554,-0.2928911 h 7.242381 q 0.505901,0 0.905298,0.2795773 0.399396,0.2795773 0.399396,0.7588529 V 19.348886 q 0,0.505902 -0.386083,0.838732 -0.386083,0.332831 -0.918611,0.332831 z m 0.559154,-2.396377 h 6.390337 V 8.2723038 H 14.66264 Z"
     id="path824"
     style="stroke-width:0.532528" />
</svg>
