<?xml version="1.0" encoding="UTF-8" standalone="no"?>
<svg
   height="24px"
   viewBox="0 -960 960 960"
   width="24px"
   fill="#5f6368"
   version="1.1"
   id="svg2514"
   sodipodi:docname="eye-off.svg"
   inkscape:version="1.2.2 (732a01da63, 2022-12-09)"
   xmlns:inkscape="http://www.inkscape.org/namespaces/inkscape"
   xmlns:sodipodi="http://sodipodi.sourceforge.net/DTD/sodipodi-0.dtd"
   xmlns="http://www.w3.org/2000/svg"
   xmlns:svg="http://www.w3.org/2000/svg">
  <defs
     id="defs2518" />
  <sodipodi:namedview
     id="namedview2516"
     pagecolor="#ffffff"
     bordercolor="#000000"
     borderopacity="0.25"
     inkscape:showpageshadow="2"
     inkscape:pageopacity="0.0"
     inkscape:pagecheckerboard="0"
     inkscape:deskcolor="#d1d1d1"
     showgrid="false"
     inkscape:zoom="31.583333"
     inkscape:cx="10.828496"
     inkscape:cy="12"
     inkscape:window-width="1847"
     inkscape:window-height="1057"
     inkscape:window-x="65"
     inkscape:window-y="-8"
     inkscape:window-maximized="1"
     inkscape:current-layer="svg2514" />
  <path
     d="m 644,-406.46967 -58,-58 q 9,-47 -27,-88 -36,-41 -93,-32 l -58,-58 q 17,-8 34.5,-12 17.5,-4 37.5,-4 75,0 127.5,52.5 52.5,52.5 52.5,127.5 0,20 -4,37.5 -4,17.5 -12,34.5 z m 128,126 -58,-56 q 38,-29 67.5,-63.5 29.5,-34.5 50.5,-78.5 -50,-101 -143.5,-160.5 -93.5,-59.5 -208.5,-59.5 -29,0 -57,4 -28,4 -55,12 l -62,-62 q 41,-17 84,-25.5 43,-8.5 90,-8.5 151,0 269,83.5 118,83.5 171,216.5 -23,59 -60.5,109.5 -37.5,50.5 -87.5,88.5 z M 792,-34.469653 624,-200.46967 q -35,11 -70.5,16.5 -35.5,5.5 -73.5,5.5 -151,0 -269,-83.5 -118,-83.5 -171,-216.5 21,-53 53,-98.5 32,-45.5 73,-81.5 l -110,-112 56,-56 736,736.000008 z M 222,-602.46967 q -29,26 -53,57 -24,31 -41,67 50,101 143.5,160.5 93.5,59.5 208.5,59.5 20,0 39,-2.5 19,-2.5 39,-5.5 l -36,-38 q -11,3 -21,4.5 -10,1.5 -21,1.5 -75,0 -127.5,-52.5 -52.5,-52.5 -52.5,-127.5 0,-11 1.5,-21 1.5,-10 4.5,-21 z m 319,93 z m -151,75 z"
     id="path2512" />
</svg>
