<?xml version="1.0" encoding="UTF-8" standalone="no"?>
<svg
   height="24px"
   viewBox="0 -960 960 960"
   width="24px"
   fill="#1f1f1f"
   version="1.1"
   id="svg1"
   sodipodi:docname="ios_share_modified.svg"
   inkscape:version="1.4 (e7c3feb1, 2024-10-09)"
   xmlns:inkscape="http://www.inkscape.org/namespaces/inkscape"
   xmlns:sodipodi="http://sodipodi.sourceforge.net/DTD/sodipodi-0.dtd"
   xmlns="http://www.w3.org/2000/svg"
   xmlns:svg="http://www.w3.org/2000/svg">
  <defs
     id="defs1" />
  <sodipodi:namedview
     id="namedview1"
     pagecolor="#505050"
     bordercolor="#ffffff"
     borderopacity="1"
     inkscape:showpageshadow="0"
     inkscape:pageopacity="0"
     inkscape:pagecheckerboard="1"
     inkscape:deskcolor="#d1d1d1"
     inkscape:zoom="13.467132"
     inkscape:cx="17.784039"
     inkscape:cy="8.0566523"
     inkscape:window-width="1304"
     inkscape:window-height="812"
     inkscape:window-x="1580"
     inkscape:window-y="188"
     inkscape:window-maximized="0"
     inkscape:current-layer="svg1" />
  <path
     d="m 440,-383.87857 v -416.44939 l -64,64 -56,-57 160,-160 160,160 -56,57 -64,-64 v 416.44939 z"
     id="path2"
     sodipodi:nodetypes="cccccccccc" />
  <path
     d="m 240,-89.991904 q -33,0 -56.5,-23.500006 -23.5,-23.50002 -23.5,-56.50003 v -440 q 0,-33 23.5,-56.5 23.5,-23.5 56.5,-23.5 h 120 v 80 H 240 v 440 h 480 v -440 H 600 v -80 h 120 q 33,0 56.5,23.5 23.5,23.5 23.5,56.5 v 440 q 0,33.00001 -23.5,56.50003 -23.5,23.500006 -56.5,23.500006 z"
     id="path1" />
</svg>
