<?xml version="1.0" encoding="UTF-8" standalone="no"?>
<svg
   height="24px"
   viewBox="0 -960 960 960"
   width="24px"
   fill="#5f6368"
   version="1.1"
   id="svg4"
   sodipodi:docname="phone_filled.svg"
   inkscape:version="1.1.2 (0a00cf5339, 2022-02-04)"
   xmlns:inkscape="http://www.inkscape.org/namespaces/inkscape"
   xmlns:sodipodi="http://sodipodi.sourceforge.net/DTD/sodipodi-0.dtd"
   xmlns="http://www.w3.org/2000/svg"
   xmlns:svg="http://www.w3.org/2000/svg">
  <defs
     id="defs8" />
  <sodipodi:namedview
     id="namedview6"
     pagecolor="#ffffff"
     bordercolor="#666666"
     borderopacity="1.0"
     inkscape:pageshadow="2"
     inkscape:pageopacity="0.0"
     inkscape:pagecheckerboard="0"
     showgrid="false"
     inkscape:zoom="35.75"
     inkscape:cx="11.986014"
     inkscape:cy="12"
     inkscape:window-width="1920"
     inkscape:window-height="1048"
     inkscape:window-x="0"
     inkscape:window-y="0"
     inkscape:window-maximized="1"
     inkscape:current-layer="svg4" />
  <path
     d="m 798,-120 c -83.33333,0 -165.66667,-18.16667 -247,-54.5 C 469.66667,-210.83333 395.66667,-262.33333 329,-329 262.33333,-395.66667 210.83333,-469.66667 174.5,-551 138.16667,-632.33333 120,-714.66667 120,-798 c 0,-12 4,-22 12,-30 8,-8 18,-12 30,-12 h 162 c 9.33333,0 17.66667,3.16667 25,9.5 7.33333,6.33333 11.66667,13.83333 13,22.5 l 26,140 c 1.33333,10.66667 1,19.66667 -1,27 -2,7.33333 -5.66667,13.66667 -11,19 l -97,98 c 13.33333,24.66667 29.16667,48.5 47.5,71.5 18.33333,23 38.5,45.16667 60.5,66.5 20.66667,20.66667 42.33333,39.83333 65,57.5 22.66667,17.66667 46.66667,33.83333 72,48.5 l 94,-94 c 6,-6 13.83333,-10.5 23.5,-13.5 9.66667,-3 19.16667,-3.83333 28.5,-2.5 l 138,28 c 9.33333,2.66667 17,7.5 23,14.5 6,7 9,14.83333 9,23.5 v 162 c 0,12 -4,22 -12,30 -8,8 -18,12 -30,12 z"
     id="path2"
     sodipodi:nodetypes="sssssssssccsccscscssccsssss" />
</svg>
