<svg xmlns="http://www.w3.org/2000/svg" height="48" viewBox="0 96 960 960" width="48"><path d="M513 564V393q0-13-8.5-21.5T483 363q-13 0-21.5 8.5T453 393v183q0 6 2 11t6 10l144 149q9 10 22.5 9.5T650 746q9-9 9-22t-9-22L513 564Zm-33 412q-82 0-155-31.5t-127.5-86Q143 804 111.5 731T80 576q0-82 31.5-155t86-127.5Q252 239 325 207.5T480 176q82 0 155 31.5t127.5 86Q817 348 848.5 421T880 576q0 82-31.5 155t-86 127.5Q708 913 635 944.5T480 976Zm0-400Zm0 340q140 0 240-100t100-240q0-140-100-240T480 236q-140 0-240 100T140 576q0 140 100 240t240 100Z"/></svg>