<?xml version="1.0" encoding="UTF-8" standalone="no"?>
<!-- Created with Inkscape (http://www.inkscape.org/) -->

<svg
   width="1024"
   height="1024"
   viewBox="0 0 270.93334 270.93334"
   version="1.1"
   id="svg1"
   xml:space="preserve"
   xmlns:xlink="http://www.w3.org/1999/xlink"
   xmlns="http://www.w3.org/2000/svg"
   xmlns:svg="http://www.w3.org/2000/svg"><defs
     id="defs1"><linearGradient
       id="linearGradient44"><stop
         style="stop-color:#21385c;stop-opacity:1;"
         offset="0"
         id="stop45" /><stop
         style="stop-color:#464d66;stop-opacity:1;"
         offset="1"
         id="stop44" /></linearGradient><linearGradient
       id="linearGradient4409"><stop
         style="stop-color:#f9f9f9;stop-opacity:1"
         offset="0"
         id="stop4411" /><stop
         style="stop-color:#cccccc;stop-opacity:0;"
         offset="1"
         id="stop4413" /></linearGradient><linearGradient
       id="linearGradient4399"><stop
         style="stop-color:#f9f9f9;stop-opacity:1;"
         offset="0"
         id="stop4401" /><stop
         style="stop-color:#f9f9f9;stop-opacity:0;"
         offset="1"
         id="stop4403" /></linearGradient><linearGradient
       id="linearGradient4375"><stop
         style="stop-color:#364e59;stop-opacity:1;"
         offset="0"
         id="stop4377" /><stop
         style="stop-color:#364e59;stop-opacity:0;"
         offset="1"
         id="stop4379" /></linearGradient><linearGradient
       id="linearGradient4367"><stop
         style="stop-color:#dc000f;stop-opacity:1;"
         offset="0"
         id="stop4369" /><stop
         style="stop-color:#00ff00;stop-opacity:0;"
         offset="1"
         id="stop4371" /></linearGradient><linearGradient
       id="linearGradient4359"><stop
         style="stop-color:#dc000f;stop-opacity:1;"
         offset="0"
         id="stop4361" /><stop
         style="stop-color:#000000;stop-opacity:0;"
         offset="1"
         id="stop4363" /></linearGradient><linearGradient
       xlink:href="#linearGradient4409"
       id="linearGradient4415"
       x1="16.345125"
       y1="3.8388948"
       x2="36.00156"
       y2="24.359163"
       gradientUnits="userSpaceOnUse" /><radialGradient
       xlink:href="#linearGradient44"
       id="radialGradient45"
       cx="27.000015"
       cy="26.847641"
       fx="27.000015"
       fy="26.847641"
       r="35.610615"
       gradientTransform="matrix(1,0,0,0.999627,0,0.01001418)"
       gradientUnits="userSpaceOnUse" /><filter
       style="color-interpolation-filters:sRGB"
       id="filter45"
       x="-0.035302937"
       y="-0.035302937"
       width="1.0706051"
       height="1.0706052"><feGaussianBlur
         stdDeviation="0.67447663"
         id="feGaussianBlur45" /></filter><filter
       style="color-interpolation-filters:sRGB"
       id="filter46"
       x="-0.097998597"
       y="-0.055834835"
       width="1.1959972"
       height="1.1116697"><feGaussianBlur
         stdDeviation="0.4842446"
         id="feGaussianBlur46" /></filter></defs><g
     id="layer1"><g
       id="layer1-8"
       transform="matrix(3.799037,0,0,3.799037,32.711991,33.341253)"><rect
         style="font-variation-settings:'wght' 800;opacity:1;fill:url(#radialGradient45);fill-opacity:1;stroke:none;stroke-width:1.19741;stroke-linecap:round;stroke-linejoin:round;stroke-dasharray:none;stroke-opacity:1;paint-order:markers stroke fill"
         id="rect44"
         width="71.22123"
         height="71.194664"
         x="-8.6105995"
         y="-8.749691" /><path
         id="path3769"
         style="fill:#ffc131;fill-opacity:1;stroke:#ffc131;stroke-width:0.687339;stroke-linejoin:round;stroke-miterlimit:4;stroke-dasharray:none;stroke-opacity:1"
         d="m 26.420057,-0.79389406 c -15.026025,0 -27.21394552,12.18792006 -27.21394552,27.21394606 0,15.026027 12.18792052,27.213946 27.21394552,27.213946 17.167269,-0.410543 11.511379,-5.631267 28.373877,1.159931 C 45.7594,39.226542 53.497731,38.834057 53.634003,26.420052 c 0,-15.026026 -12.187919,-27.21394606 -27.213946,-27.21394606 z M 26.380305,4.0235614 C 38.756606,3.8729537 48.7955,13.798713 48.7955,26.186195 48.629568,35.750947 41.263351,37.232174 48.388589,48.36286 35.381421,42.320433 38.147509,48.846408 26.380302,48.893715 14.004,49.044323 3.9651026,39.118564 3.9651026,26.731083 3.9651026,14.343603 14.004,4.1741689 26.380302,4.0235613 Z" /><g
         style="font-style:normal;font-weight:normal;font-size:40px;line-height:125%;font-family:Sans;letter-spacing:0px;word-spacing:0px;fill:#000000;fill-opacity:1;stroke:none"
         id="text4383" /><g
         style="font-style:normal;font-weight:normal;font-size:40px;line-height:125%;font-family:Sans;letter-spacing:0px;word-spacing:0px;fill:#000000;fill-opacity:1;stroke:none"
         id="text4421" /><g
         transform="matrix(1.3317352,0,0,1.0765222,-1.5689211,-1.9197768)"
         style="font-style:normal;font-weight:normal;font-size:42.1059px;line-height:125%;font-family:Sans;letter-spacing:0px;word-spacing:0px;fill:#24c8db;fill-opacity:1;stroke:#24c8db;stroke-opacity:1;stroke-width:1.00005061;stroke-dasharray:none"
         id="text3797"><path
           d="m 21.688854,23.636251 q -1.027975,-1.151333 -2.857771,-2.754974 -2.014832,-1.768118 -2.713855,-2.775534 -0.699024,-1.027975 -0.699024,-2.240986 0,-1.809237 1.68588,-2.837212 1.68588,-1.048535 4.399735,-1.048535 2.713855,0 4.728687,0.925178 2.035391,0.925177 2.035391,2.549379 0,0.781261 -0.493428,1.295249 -0.493428,0.513987 -1.151333,0.513987 -0.945737,0 -2.220426,-1.418606 -1.295249,-1.439165 -2.199868,-2.014832 -0.884059,-0.596225 -2.07651,-0.596225 -1.521404,0 -2.50826,0.678463 -0.966297,0.678464 -0.966297,1.726999 0,0.986857 0.801821,1.850356 0.801821,0.863499 4.132461,3.145605 3.556795,2.446581 5.01652,3.824068 1.480285,1.377487 2.405462,3.3512 0.925178,1.973713 0.925178,4.17358 0,3.865188 -2.734414,6.825757 -2.713855,2.94001 -6.352888,2.94001 -3.310081,0 -5.592187,-2.364344 -2.282105,-2.364343 -2.282105,-6.311769 0,-3.803509 2.50826,-6.352888 2.528819,-2.549379 6.208971,-3.083926 z m 0.904619,0.945737 q -5.900579,0.966297 -5.900579,8.100447 0,3.680152 1.459725,5.715543 1.480285,2.035391 3.433438,2.035391 2.035391,0 3.3512,-1.953153 1.315808,-1.973713 1.315808,-5.324913 0,-4.852044 -3.659592,-8.573315 z"
           style="font-family:'Times New Roman';-inkscape-font-specification:'Times New Roman';fill:#24c8db;fill-opacity:1;stroke:#24c8db;stroke-opacity:1;stroke-width:1.00005061;stroke-dasharray:none"
           id="path4161" /></g><path
         id="path45"
         style="fill:#ffc131;fill-opacity:1;stroke:#ffc131;stroke-width:0.687339;stroke-linejoin:round;stroke-miterlimit:4;stroke-dasharray:none;stroke-opacity:1;filter:url(#filter45)"
         d="m 26.420057,-0.79389406 c -15.026025,0 -27.21394552,12.18792006 -27.21394552,27.21394606 0,15.026027 12.18792052,27.213946 27.21394552,27.213946 17.167269,-0.410543 11.511379,-5.631267 28.373877,1.159931 C 45.7594,39.226542 53.497731,38.834057 53.634003,26.420052 c 0,-15.026026 -12.187919,-27.21394606 -27.213946,-27.21394606 z M 26.380305,4.0235614 C 38.756606,3.8729537 48.7955,13.798713 48.7955,26.186195 48.629568,35.750947 41.263351,37.232174 48.388589,48.36286 35.381421,42.320433 38.147509,48.846408 26.380302,48.893715 14.004,49.044323 3.9651026,39.118564 3.9651026,26.731083 3.9651026,14.343603 14.004,4.1741689 26.380302,4.0235613 Z" /><g
         transform="matrix(1.3317352,0,0,1.0765222,-1.5689211,-1.9197768)"
         style="font-style:normal;font-weight:normal;font-size:42.1059px;line-height:125%;font-family:Sans;letter-spacing:0px;word-spacing:0px;fill:#24c8db;fill-opacity:1;stroke:#24c8db;stroke-opacity:1;stroke-width:1.00005061;stroke-dasharray:none;filter:url(#filter46)"
         id="g46"><path
           d="m 21.688854,23.636251 q -1.027975,-1.151333 -2.857771,-2.754974 -2.014832,-1.768118 -2.713855,-2.775534 -0.699024,-1.027975 -0.699024,-2.240986 0,-1.809237 1.68588,-2.837212 1.68588,-1.048535 4.399735,-1.048535 2.713855,0 4.728687,0.925178 2.035391,0.925177 2.035391,2.549379 0,0.781261 -0.493428,1.295249 -0.493428,0.513987 -1.151333,0.513987 -0.945737,0 -2.220426,-1.418606 -1.295249,-1.439165 -2.199868,-2.014832 -0.884059,-0.596225 -2.07651,-0.596225 -1.521404,0 -2.50826,0.678463 -0.966297,0.678464 -0.966297,1.726999 0,0.986857 0.801821,1.850356 0.801821,0.863499 4.132461,3.145605 3.556795,2.446581 5.01652,3.824068 1.480285,1.377487 2.405462,3.3512 0.925178,1.973713 0.925178,4.17358 0,3.865188 -2.734414,6.825757 -2.713855,2.94001 -6.352888,2.94001 -3.310081,0 -5.592187,-2.364344 -2.282105,-2.364343 -2.282105,-6.311769 0,-3.803509 2.50826,-6.352888 2.528819,-2.549379 6.208971,-3.083926 z m 0.904619,0.945737 q -5.900579,0.966297 -5.900579,8.100447 0,3.680152 1.459725,5.715543 1.480285,2.035391 3.433438,2.035391 2.035391,0 3.3512,-1.953153 1.315808,-1.973713 1.315808,-5.324913 0,-4.852044 -3.659592,-8.573315 z"
           style="font-family:'Times New Roman';-inkscape-font-specification:'Times New Roman';fill:#24c8db;fill-opacity:1;stroke:#24c8db;stroke-opacity:1;stroke-width:1.00005061;stroke-dasharray:none"
           id="path46" /></g></g></g></svg>
