<svg width="24" height="24" xmlns="http://www.w3.org/2000/svg">

 <g>
  <rect fill="none" id="canvas" height="402" width="582" y="-1" x="-1"/>
 </g>
 <g>
  <title>Map marker </title>
  <path id="svg_2" fill="#3f7f00" d="m12,0c-4.4183,0 -8,3.5817 -8,8c0,1.421 0.3816,2.75 1.0312,3.906c0.1079,0.192 0.221,0.381 0.3438,0.563l6.625,11.531l6.625,-11.531c0.102,-0.151 0.19,-0.311 0.281,-0.469l0.063,-0.094c0.649,-1.156 1.031,-2.485 1.031,-3.906c0,-4.4183 -3.582,-8 -8,-8zm0,4c2.209,0 4,1.7909 4,4c0,2.209 -1.791,4 -4,4c-2.2091,0 -4,-1.791 -4,-4c0,-2.2091 1.7909,-4 4,-4z"/>
  <path id="svg_3" fill="#5fbf00" d="m12,3c-2.7614,0 -5,2.2386 -5,5c0,2.761 2.2386,5 5,5c2.761,0 5,-2.239 5,-5c0,-2.7614 -2.239,-5 -5,-5zm0,2c1.657,0 3,1.3431 3,3s-1.343,3 -3,3s-3,-1.3431 -3,-3s1.343,-3 3,-3z"/>
 </g>
</svg>