<?xml version="1.0" encoding="UTF-8" standalone="no"?>
<!-- Created with Inkscape (http://www.inkscape.org/) -->

<svg
   xmlns:dc="http://purl.org/dc/elements/1.1/"
   xmlns:cc="http://creativecommons.org/ns#"
   xmlns:rdf="http://www.w3.org/1999/02/22-rdf-syntax-ns#"
   xmlns:svg="http://www.w3.org/2000/svg"
   xmlns="http://www.w3.org/2000/svg"
   xmlns:sodipodi="http://sodipodi.sourceforge.net/DTD/sodipodi-0.dtd"
   xmlns:inkscape="http://www.inkscape.org/namespaces/inkscape"
   version="1.1"
   id="svg2"
   width="320"
   height="270.39999"
   viewBox="0 0 320 270.39999">
  <defs
     id="defs6" />
  <path
     style="fill:#000000;stroke-width:0.31999999"
     d="m 134.24323,259.51477 c 0.11054,-0.17887 0.33504,-0.24237 0.49888,-0.14111 0.44385,0.27431 0.36109,0.46633 -0.201,0.46633 -0.27438,0 -0.40843,-0.14635 -0.29788,-0.32522 z m -3.18723,-0.28466 c 0.17069,-0.16276 0.8653,-0.1789 1.584,-0.0368 l 1.28,0.25308 -1.584,0.0368 c -0.95557,0.0222 -1.46339,-0.0782 -1.28,-0.25308 z m 9.904,-1.88726 c 0.32031,-0.32331 4.04232,-1.01255 6.34291,-1.17456 1.80242,-0.12693 0.97082,0.38771 -0.90291,0.55877 -0.88,0.0803 -1.888,0.22064 -2.24,0.31177 -1.6942,0.43865 -3.50368,0.61056 -3.2,0.30402 z m 9.76,-2.66273 c 0,-0.45193 1.53102,-1.29518 2.15117,-1.18481 0.42136,0.075 0.19973,0.29547 -0.7815,0.77744 -0.75332,0.37001 -1.36967,0.55333 -1.36967,0.40737 z m 48.79369,-1.89034 c -0.0916,-0.14822 -0.71797,-0.26189 -1.39192,-0.25259 -0.67395,0.009 -1.52558,-0.14376 -1.89253,-0.34014 -0.36694,-0.19638 -1.24165,-0.35706 -1.94379,-0.35706 -1.39193,0 -3.778,-0.4379 -6.28959,-1.15429 -0.88228,-0.25165 -3.47428,-0.5923 -5.76,-0.75699 -5.58896,-0.4027 -7.71561,-0.63 -9.48113,-1.01337 -1.23906,-0.26906 -1.84908,-0.20856 -3.68,0.365 -1.2071,0.37813 -2.91473,0.75781 -3.79473,0.84372 -0.88,0.0859 -1.888,0.27882 -2.24,0.42866 -0.99518,0.42366 -6.3037,1.65024 -6.46105,1.49289 -0.21254,-0.21254 2.56189,-1.03165 6.14105,-1.81305 1.76,-0.38424 4.064,-0.99176 5.12,-1.35004 2.27697,-0.77254 3.45402,-0.79184 8.96,-0.14698 2.288,0.26797 5.528,0.56402 7.2,0.65789 1.672,0.0939 3.61891,0.37668 4.32645,0.62847 1.46088,0.51987 4.29595,0.96486 5.81909,0.91335 0.56405,-0.0191 1.57205,0.19429 2.24,0.47415 0.73879,0.30953 2.42553,0.54943 4.30647,0.61249 2.79855,0.0938 3.33004,0.013 5.6,-0.85169 4.62922,-1.7634 4.58799,-1.73352 4.58799,-3.32439 0,-1.55127 0.45621,-3.04582 0.92974,-3.04582 0.19248,0 0.19542,0.38414 0.008,1.03789 -0.39712,1.38467 -0.37756,2.80211 0.0387,2.80211 0.42659,0 1.34764,-2.16524 1.09496,-2.57409 -0.10399,-0.16825 -0.0231,-0.30591 0.17978,-0.30591 0.20286,0 0.44495,0.29103 0.53797,0.64675 0.13289,0.50815 0.26361,0.56833 0.61004,0.28081 0.2425,-0.20126 0.44092,-0.49892 0.44092,-0.66146 0,-0.36309 -3.14693,-1.85866 -3.92,-1.86297 -0.308,-0.002 -0.56,-0.13569 -0.56,-0.2977 0,-0.16202 -0.468,-0.39543 -1.04,-0.51869 -0.572,-0.12326 -2.07322,-0.71214 -3.33604,-1.30863 -1.26282,-0.59649 -2.70282,-1.16594 -3.2,-1.26545 l -0.90396,-0.18092 0.0544,3.62413 c 0.0459,3.05751 -0.0112,3.53453 -0.36486,3.05103 -0.30995,-0.42372 -0.37518,-1.43606 -0.25026,-3.88373 l 0.16897,-3.31062 -0.8541,-0.55962 c -0.97676,-0.64 -1.1445,-0.56661 -1.1721,0.51283 -0.0839,3.28276 0.10389,6.99892 0.34619,6.84917 0.15998,-0.0989 0.47557,0.13097 0.70133,0.51076 0.22576,0.37978 0.84247,0.88373 1.37047,1.11989 l 0.96,0.42937 -1.03729,0.0125 c -0.69121,0.008 -1.16725,-0.19557 -1.42682,-0.6112 -0.28925,-0.46318 -0.49588,-0.53546 -0.80271,-0.28082 -0.48089,0.3991 -0.48956,0.31785 -0.56098,-5.25483 -0.0424,-3.30742 -0.12296,-3.81848 -0.67019,-4.25094 -0.86283,-0.68184 -1.96524,-1.10967 -2.85943,-1.10967 -0.52812,0 -0.90735,-0.30393 -1.25916,-1.00916 -0.58921,-1.1811 -0.59749,-1.23084 -0.205,-1.23084 0.16414,0 0.38989,0.28815 0.50167,0.64034 0.11178,0.35219 0.47824,0.78752 0.81436,0.96741 0.49292,0.2638 0.57495,0.23279 0.42409,-0.16034 -0.28533,-0.74356 0.21874,-0.59325 2.12144,0.63259 0.95613,0.616 1.8953,1.12 2.08704,1.12 0.19174,0 0.83657,0.36 1.43296,0.8 0.59639,0.44 1.35343,0.8 1.68231,0.8 0.32889,0 1.41691,0.37839 2.41783,0.84087 1.00093,0.46247 2.10786,0.94854 2.45986,1.08015 0.352,0.13161 1.02668,0.39389 1.4993,0.58285 l 0.8593,0.34355 -0.7793,-1.14837 c -1.01839,-1.50067 -1.08055,-4.68418 -0.13227,-6.77399 0.34813,-0.76723 0.63297,-1.58581 0.63297,-1.81909 0,-0.23328 -1.548,-1.17293 -3.44,-2.0881 -1.892,-0.91516 -3.69527,-1.79184 -4.00726,-1.94815 -0.38602,-0.1934 -0.60813,-0.15409 -0.69517,0.12303 -1.29692,4.12935 -1.54803,4.53625 -3.47717,5.63449 -1.42923,0.81365 -2.16934,0.58382 -2.94399,-0.91419 -1.15404,-2.23165 0.21483,-8.33115 2.38307,-10.61873 0.67113,-0.70806 5.65197,-3.45432 6.26504,-3.45432 0.0941,0 1.1027,-0.58831 2.24123,-1.30736 1.90467,-1.20291 3.02359,-1.55336 2.46399,-0.77174 -0.55579,0.77632 -4.10497,2.83019 -6.94974,4.02174 -2.32476,0.97374 -4.63866,2.60348 -4.63938,3.26764 -3.2e-4,0.31365 -0.21399,1.08093 -0.47477,1.70507 -0.72462,1.73428 -1.15593,5.82893 -0.70044,6.64968 0.60848,1.09641 0.92646,1.1554 2.24573,0.41659 1.44666,-0.81015 2.52723,-2.84252 2.72012,-5.11612 0.0411,-0.4841 0.23756,-0.54089 1.24874,-0.36088 0.66,0.11748 1.704,0.46204 2.32,0.76568 0.616,0.30363 2.0858,1.00163 3.26621,1.55109 1.18041,0.54947 2.38178,1.35856 2.6697,1.79798 0.48995,0.74776 0.48079,0.92776 -0.14301,2.80979 -0.85386,2.57613 -0.94218,4.75221 -0.23658,5.82908 0.6638,1.0131 1.38667,1.03746 2.79636,0.0942 1.26881,-0.84897 2.21249,-3.20419 2.38914,-5.96277 0.0609,-0.95167 0.22496,-1.82613 0.36449,-1.94325 0.13953,-0.11712 1.83769,-0.91594 3.77369,-1.77515 1.936,-0.8592 3.57392,-1.59866 3.63982,-1.64322 0.0659,-0.0446 -0.2581,-0.53017 -0.72,-1.07911 -0.99367,-1.1809 -1.03936,-1.79074 -0.21459,-2.86418 0.69684,-0.90694 1.20274,-0.70867 0.6807,0.26678 -0.79378,1.48318 -0.31526,2.37007 1.4866,2.75527 l 1.03253,0.22074 -0.65915,-1.54378 c -1.92992,-4.52011 -3.53709,-7.89439 -9.49918,-19.94379 -2.91737,-5.896 -5.61433,-11.224 -5.99325,-11.84 -0.37891,-0.616 -0.94801,-1.804 -1.26468,-2.64 -0.64756,-1.7096 -0.96876,-1.80744 -2.8888,-0.88 -0.704,0.34006 -1.64,0.62412 -2.08,0.63125 -0.44,0.007 -1.232,0.29907 -1.76,0.64875 -0.528,0.34968 -1.248,0.63744 -1.6,0.63946 -1.54102,0.009 -6.64909,3.17732 -8.86196,5.49698 -0.47408,0.49696 -1.12208,0.91037 -1.44,0.91869 -0.31792,0.008 -1.44204,0.50245 -2.49804,1.09807 -1.056,0.59562 -2.96432,1.58987 -4.24072,2.20944 -2.72795,1.32417 -7.75928,5.41693 -7.75928,6.31182 0,0.33305 -0.216,0.60554 -0.48,0.60554 -0.91422,0 -0.51366,-1.4388 0.72,-2.58624 2.88664,-2.68488 4.88018,-4.01895 9.6058,-6.42816 2.76881,-1.41159 5.70912,-3.12973 6.53402,-3.81809 2.27332,-1.89704 6.51099,-4.39241 7.85998,-4.62838 0.66011,-0.11547 1.67643,-0.48201 2.25849,-0.81454 0.58206,-0.33252 1.33273,-0.60459 1.66815,-0.60459 0.33543,0 1.2992,-0.27041 2.14171,-0.60092 2.30347,-0.90361 4.25185,-1.17147 4.25185,-0.58453 0,0.25895 -0.27681,0.5432 -0.61513,0.63167 -0.57166,0.14949 -0.58438,0.25012 -0.18001,1.42383 0.23932,0.69463 1.13226,2.54704 1.98431,4.11646 0.85206,1.56942 1.75318,3.35749 2.0025,3.97349 0.41378,1.02235 3.23056,6.62987 4.09895,8.16 0.34698,0.61139 2.55149,5.19345 6.15829,12.8 0.91799,1.936 2.01027,4.41993 2.42728,5.51985 0.41701,1.09991 0.89718,2.25191 1.06705,2.56 0.16987,0.30808 0.83549,1.92815 1.47915,3.60015 0.64366,1.672 1.26194,3.13295 1.37395,3.24657 0.11202,0.11361 0.51473,0.087 0.89492,-0.0591 l 0.69126,-0.26562 -0.78416,-2.02094 c -0.74466,-1.91911 -5.22277,-11.22109 -8.90664,-18.50095 -0.93515,-1.848 -2.09294,-4.296 -2.57286,-5.44 -1.18604,-2.82718 -1.83237,-4.24253 -4.23778,-9.28 -1.13455,-2.376 -2.34887,-5.03964 -2.69849,-5.9192 -0.34963,-0.87956 -0.74696,-1.74356 -0.88295,-1.92 -0.45059,-0.58458 -1.00015,-3.38143 -0.74775,-3.80546 0.44374,-0.74546 2.45575,-2.3328 3.85849,-3.04407 0.75371,-0.38218 2.75613,-1.05491 4.44982,-1.49497 1.69369,-0.44006 3.22313,-0.88891 3.39876,-0.99746 0.37624,-0.23252 3.61004,-0.44996 5.66104,-0.38064 1.85208,0.0626 1.82924,0.0642 5.6,-0.39928 4.823,-0.59287 8.35916,-0.54069 10.15827,0.14991 1.41927,0.54478 3.46034,0.51251 3.43039,-0.0542 -0.052,-0.98448 -4.76734,-5.66326 -9.69528,-9.62015 -3.25959,-2.6173 -12.26446,-8.35222 -13.12061,-8.35613 -0.20503,-9.6e-4 -1.66877,-0.62743 -3.25277,-1.39223 -1.584,-0.7648 -3.6,-1.49234 -4.48,-1.61677 -0.88,-0.12443 -3.328,-0.59418 -5.44,-1.04389 -2.112,-0.44972 -4.488,-0.95256 -5.28,-1.11743 -0.792,-0.16487 -2.5918,-0.20245 -3.99956,-0.0835 l -2.55957,0.21624 2.39957,0.91415 c 3.92228,1.49425 6.99164,3.1814 13.15302,7.22988 1.1256,0.7396 2.47854,1.67516 3.00654,2.07901 1.41363,1.08125 9.12,8.78036 9.12,9.11141 0,0.15593 0.52416,0.82316 1.16479,1.48273 0.64064,0.65956 1.07207,1.29193 0.95874,1.40526 -0.27445,0.27444 -1.70097,-1.06975 -2.61399,-2.46314 -1.48186,-2.26149 -8.6935,-9.20811 -10.53865,-10.15136 -0.53399,-0.27298 -1.47489,-0.88842 -2.09089,-1.36764 -2.59166,-2.01622 -10.51486,-6.401 -11.56646,-6.401 -0.31561,0 -1.14896,-0.29977 -1.8519,-0.66616 -0.70294,-0.3664 -1.42738,-0.5739 -1.60986,-0.46112 -0.49485,0.30584 -0.40129,1.16008 0.19981,1.82429 0.63789,0.70486 0.79766,0.99542 3.13596,5.70299 1.82495,3.67411 4.61044,10.14596 5.1648,12 0.0526,0.176 0.47125,1.32164 0.93028,2.54586 0.83701,2.23224 1.43368,5.28702 0.84657,4.33414 -0.16266,-0.264 -0.39958,-0.984 -0.52648,-1.6 -0.1269,-0.616 -0.70956,-2.272 -1.29479,-3.68 -0.58524,-1.408 -1.38284,-3.46442 -1.77246,-4.56983 -0.38961,-1.1054 -0.83148,-2.0859 -0.98193,-2.17888 -0.15045,-0.093 -0.27354,-0.39405 -0.27354,-0.66905 0,-0.73686 -4.77797,-10.26695 -5.69202,-11.35324 -0.60641,-0.72067 -0.73906,-1.15359 -0.58678,-1.91498 0.19389,-0.96947 0.17998,-0.98184 -0.95448,-0.8494 -1.42237,0.16606 -1.89117,-0.45591 -2.15249,-2.8557 -0.28178,-2.58777 0.55644,-2.54491 1.39044,0.0711 0.22444,0.704 0.56678,1.38249 0.76075,1.50774 0.19397,0.12526 2.1531,0.14622 4.35363,0.0466 3.55668,-0.16105 4.39182,-0.0901 7.52095,0.6385 1.936,0.45082 5.07862,1.1175 6.98361,1.48152 1.90498,0.36401 3.78875,0.87489 4.18614,1.13527 0.39739,0.26038 2.00677,1.02675 3.57639,1.70304 1.56962,0.67629 3.52485,1.64761 4.34494,2.15849 0.82009,0.51087 2.72761,1.69424 4.23894,2.62971 3.03349,1.87762 5.60064,3.90672 9.92693,7.84631 4.87471,4.43898 5.21935,4.81924 5.63977,6.22247 0.22252,0.74271 0.59779,1.35037 0.83393,1.35037 0.44416,0 0.58814,0.69454 0.22026,1.06243 -0.115,0.115 -0.65794,-0.0683 -1.20652,-0.40735 -0.54859,-0.33905 -1.4265,-0.61223 -1.95091,-0.60707 -0.52441,0.005 -2.05795,-0.2751 -3.40786,-0.62279 -1.86386,-0.48007 -2.80448,-0.56676 -3.90954,-0.36031 -0.80034,0.14952 -2.62836,0.3342 -4.06227,0.41039 -1.96365,0.10434 -2.82391,0.29882 -3.48553,0.78798 -0.79565,0.58825 -0.92543,0.60243 -1.37737,0.15049 -0.38597,-0.38597 -1.16096,-0.48976 -3.4223,-0.45833 -1.60784,0.0223 -3.20353,0.19059 -3.54598,0.37386 -0.34244,0.18327 -0.62263,0.25422 -0.62263,0.15767 0,-0.0966 -0.52159,0.0424 -1.15908,0.30874 -0.63749,0.26636 -1.50465,0.48429 -1.92703,0.48429 -1.49347,0 -4.98912,1.86577 -6.84452,3.65319 -0.76613,0.73807 -0.71611,2.33964 0.12928,4.13945 0.89843,1.91273 2.83986,6.08997 4.36534,9.39263 0.58564,1.2679 1.18819,2.22901 1.339,2.1358 0.58545,-0.36182 2.7924,-5.27308 4.13192,-9.19498 1.54306,-4.51786 2.32577,-5.66759 4.81345,-7.07048 l 1.48836,-0.83934 0.91164,0.78481 c 0.81261,0.69956 0.9101,0.98764 0.89744,2.65187 -0.008,1.02688 -0.29313,2.63662 -0.63405,3.5772 -0.6093,1.681 -0.60947,1.71773 -0.0102,2.15593 0.33531,0.24518 1.12463,0.52409 1.75405,0.61979 0.62943,0.0957 1.79241,0.37366 2.58441,0.61768 0.792,0.24402 2.28113,0.5185 3.30919,0.60995 l 1.86918,0.16629 0.94659,-2.1399 c 2.46838,-5.58012 3.14107,-6.20836 6.20277,-5.79288 3.25911,0.44227 3.86795,1.85465 2.725,6.32145 -0.39005,1.52435 -1.04508,3.49154 -1.45562,4.37154 -0.72577,1.55571 -1.84416,6.56064 -1.46574,6.55937 0.10375,-3.2e-4 0.49744,-0.75635 0.87487,-1.68 0.92719,-2.26899 4.02087,-9.32637 4.16124,-9.4927 0.0619,-0.0733 0.18575,-0.0601 0.27524,0.0294 0.27981,0.27981 -4.45679,11.05573 -5.60165,12.74395 -0.81751,1.20549 -1.28787,3.40054 -0.84429,3.94006 0.52467,0.63814 2.39248,1.64726 3.94652,2.13219 0.73882,0.23054 1.4183,0.6146 1.50996,0.85346 0.29111,0.75861 -1.03577,0.48917 -3.37679,-0.68571 -1.22742,-0.616 -2.42019,-1.12 -2.6506,-1.12 -0.2304,0 -0.67449,0.684 -0.98685,1.52 -1.6932,4.53167 -2.64337,5.79676 -7.51067,10 -1.76047,1.52028 -3.97884,2.88 -4.69868,2.88 -0.929,0 -0.34225,-0.64907 1.4506,-1.60464 1.09031,-0.58113 3.2301,-2.30315 5.09315,-4.09877 3.1638,-3.04929 3.23469,-3.15036 4.64043,-6.61659 1.53461,-3.78399 2.90825,-8.74425 3.27883,-11.84 0.12642,-1.056 0.52177,-2.496 0.87857,-3.2 0.83493,-1.64738 2.14875,-6.4036 2.14875,-7.77877 0,-1.72361 -0.449,-2.21489 -2.25075,-2.4627 -2.38435,-0.32793 -3.24318,0.14678 -4.17557,2.30804 -0.42552,0.98636 -1.20568,2.67089 -1.73368,3.74341 l -0.96,1.95003 -2.08,-0.11295 c -1.144,-0.0621 -2.33149,-0.24693 -2.63887,-0.41066 -0.30739,-0.16373 -1.38282,-0.45001 -2.38985,-0.63617 -1.00704,-0.18616 -2.39035,-0.62385 -3.07403,-0.97264 -1.41359,-0.72115 -1.42327,-0.89864 -0.23278,-4.26758 0.74636,-2.1121 0.60487,-3.81943 -0.36735,-4.43269 -0.8739,-0.55124 -3.56066,1.49171 -4.56037,3.46761 -0.44921,0.88785 -0.81675,1.7664 -0.81675,1.95235 0,1.15961 -3.71408,9.87848 -4.70928,11.05512 -0.38198,0.45162 -0.30535,0.84177 0.56568,2.88 0.98915,2.31466 2.65158,5.74447 3.85704,7.95761 0.33553,0.616 1.11492,2.23288 1.73199,3.59307 l 1.12193,2.47307 1.03632,-0.43892 c 1.2467,-0.52802 4.45443,-1.46722 5.01111,-1.46722 0.2192,0 0.34694,0.1548 0.28388,0.344 -0.0631,0.1892 -0.21722,0.33753 -0.34255,0.32961 -0.12534,-0.008 -0.89812,0.2729 -1.71729,0.62404 -0.81918,0.35114 -1.55327,0.57458 -1.63133,0.49652 -0.30468,-0.30469 -2.0075,0.53573 -2.0075,0.99079 0,0.26529 0.91982,2.23121 2.04405,4.3687 1.12423,2.13749 2.22348,4.46234 2.44279,5.16634 0.2193,0.704 0.60288,1.68317 0.8524,2.17593 l 0.45367,0.89593 1.02354,-0.63144 c 1.42646,-0.87999 4.27114,-1.867 5.98355,-2.07608 3.93957,-0.48102 6.14653,-0.85743 6.67005,-1.13761 1.05595,-0.56512 4.58895,-0.43004 7.08995,0.27109 1.32,0.37004 3.48,0.95294 4.8,1.29532 2.23821,0.58055 3.38435,1.00953 7.03413,2.63275 1.55827,0.69303 5.84468,1.98605 7.76587,2.34262 0.70367,0.1306 1.2,0.40652 1.2,0.6671 0,0.24442 -0.18,0.44182 -0.4,0.43868 -1.18659,-0.017 -7.56549,-2.03704 -10.47634,-3.31767 -1.84599,-0.81214 -3.5851,-1.47662 -3.8647,-1.47662 -0.27959,0 -1.79324,-0.41785 -3.36366,-0.92856 -4.65042,-1.51233 -7.55513,-1.74588 -10.90265,-0.87657 -1.02996,0.26746 -3.21925,0.65368 -4.8651,0.85827 -3.64765,0.45342 -6.4674,1.60183 -6.22346,2.53465 0.1645,0.62905 -0.48215,0.90231 -3.42409,1.44697 -3.01263,0.55775 -5.74538,1.64668 -7.9704,3.176 -2.41728,1.66147 -3.97878,2.97577 -4.21679,3.54924 -0.0731,0.176 -1.02937,1.13722 -2.12516,2.13604 -1.96829,1.79409 -6.80328,4.4657 -8.88765,4.91092 -0.528,0.11278 -1.32,0.32604 -1.76,0.4739 -1.18234,0.39731 -4.77362,0.62071 -4.96631,0.30893 z M 216.64,244.39851 c 0,-0.38729 1.9546,-2.0919 3.28,-2.86049 0.66,-0.38274 1.2,-0.81336 1.2,-0.95695 0,-0.14359 0.216,-0.26108 0.48,-0.26108 0.264,0 0.48019,-0.108 0.48043,-0.24 6.4e-4,-0.41308 3.93932,-2.28833 5.22632,-2.48836 0.78019,-0.12127 1.16571,-0.32918 1.05908,-0.57116 -0.0922,-0.20926 -0.74318,-1.82048 -1.44661,-3.58048 -1.23952,-3.10135 -2.03316,-4.20627 -2.52833,-3.52 -0.12699,0.176 -1.23889,0.80824 -2.47089,1.40499 -1.232,0.59674 -2.924,1.43305 -3.76,1.85846 -0.836,0.42541 -1.53395,0.65716 -1.551,0.51501 -0.0171,-0.14215 -0.22504,0.98714 -0.46223,2.50955 -0.65561,4.20818 -2.03616,6.21566 -4.59027,6.67477 l -1.1565,0.20788 1.28,0.37508 c 0.704,0.20628 1.856,0.7084 2.56,1.11582 0.98419,0.56956 1.40942,0.6626 1.84,0.40262 0.308,-0.18597 0.56,-0.44952 0.56,-0.58566 z M 89.116118,234.8005 c 1.405866,-1.27628 3.558976,-3.29251 4.784692,-4.48051 1.225715,-1.188 2.271462,-2.16 2.323881,-2.16 0.05242,0 0.09531,0.19238 0.09531,0.4275 0,0.70854 -7.808429,7.83051 -9.092339,8.29301 -0.367213,0.13228 0.482592,-0.80372 1.888457,-2.08 z M 232.32,233.51641 c 0,-0.5258 2.05452,-2.50774 3.25169,-3.13681 0.41157,-0.21626 1.39631,-0.91869 2.18831,-1.56095 1.33757,-1.08467 2.0315,-1.58683 4.063,-2.94014 0.43054,-0.28681 1.93424,-1.63786 3.34156,-3.00233 1.85012,-1.79379 2.65557,-2.38405 2.90833,-2.1313 0.25275,0.25275 0.14317,0.51669 -0.39566,0.95301 -0.40987,0.33189 -0.79228,0.80564 -0.84979,1.05277 -0.64349,2.76505 -0.62868,3.35548 0.17733,7.07051 0.29351,1.35284 -0.0827,2.3334 -0.59139,1.54158 -0.37856,-0.5892 -0.7634,-3.4037 -0.79197,-5.79198 l -0.0214,-1.78922 -2.24,1.77754 c -1.232,0.97764 -2.41228,1.94479 -2.62284,2.14921 -0.21057,0.20441 -1.83063,1.33856 -3.60013,2.52032 -1.76951,1.18176 -3.32523,2.31576 -3.45716,2.52001 -0.13193,0.20425 -0.49187,0.56899 -0.79987,0.81054 -0.47985,0.37633 -0.56,0.37021 -0.56,-0.0428 z m -118.67055,-0.37477 c 0.1152,-0.12497 1.0512,-0.27287 2.08,-0.32867 1.0288,-0.0558 2.82655,-0.20566 3.99499,-0.33302 1.28431,-0.13999 2.35176,-0.10435 2.69927,0.0901 0.45246,0.25321 0.27271,0.32042 -0.84444,0.31572 -0.7806,-0.003 -2.93127,0.10406 -4.77927,0.23854 -1.848,0.13448 -3.26575,0.14226 -3.15055,0.0173 z M 127.84,232.96796 c -0.60244,-0.15829 0.70864,-0.25797 3.52,-0.26762 2.464,-0.008 4.72548,0.0825 5.02552,0.20214 0.77346,0.3084 -7.3832,0.3709 -8.54552,0.0655 z m 20.41695,-1.49688 c -0.24234,-0.63152 0.21735,-0.91091 2.78305,-1.69147 3.1444,-0.95662 8.19473,-1.42036 12.46771,-1.14482 2.03076,0.13096 5.27629,0.28512 7.21229,0.34258 1.936,0.0575 6.184,0.183 9.44,0.27895 6.10287,0.17985 10.37001,-0.14845 12.56648,-0.96681 1.68225,-0.62679 1.74429,-0.57528 0.55637,0.46189 -0.91433,0.79829 -1.44592,0.95494 -4.28337,1.26223 -1.78171,0.19296 -4.67948,0.28089 -6.43948,0.19541 -1.76,-0.0855 -6.01316,-0.19393 -9.45147,-0.24099 -3.43831,-0.0471 -6.40141,-0.17825 -6.58467,-0.29151 -0.18326,-0.11326 -2.05009,-0.22269 -4.14853,-0.24319 -4.95903,-0.0484 -10.5614,0.74329 -12.48064,1.76376 -1.24669,0.66288 -1.47392,0.70088 -1.63774,0.27397 z m 100.4997,-0.58865 c -0.38292,-0.9979 -0.30132,-9.38282 0.0952,-9.78085 0.28254,-0.28363 0.36866,0.42304 0.35857,2.94257 -0.007,1.82371 0.0934,3.81984 0.22373,4.43584 0.37824,1.78754 0.35543,2.64995 -0.074,2.79664 -0.21991,0.0751 -0.49149,-0.10227 -0.60352,-0.3942 z m 5.80335,-7.58607 c -1.76,-0.16236 -3.33379,-0.42745 -3.49731,-0.58909 -0.29625,-0.29286 2.20896,-0.16137 5.96869,0.31325 1.00726,0.12715 1.87126,0.1155 1.92,-0.0259 0.0487,-0.14139 1.16862,-0.3309 2.48862,-0.42112 1.59609,-0.1091 2.13203,-0.0691 1.6,0.11931 -0.44,0.15586 -1.4035,0.29773 -2.14111,0.31527 -0.73762,0.0175 -1.43012,0.1759 -1.53889,0.3519 -0.21928,0.35479 -0.27152,0.3541 -4.8,-0.0636 z m 24.72,0.1261 c -0.836,-0.0537 -1.52,-0.23365 -1.52,-0.4 0,-0.38928 2.25348,-0.38533 2.87073,0.005 0.66833,0.42267 0.38267,0.50619 -1.35073,0.39497 z m -5.52,-0.71719 c -0.88,-0.13707 -2.356,-0.26183 -3.28,-0.27724 -0.924,-0.0154 -1.68,-0.17204 -1.68,-0.34804 0,-0.176 0.5954,-0.32 1.3231,-0.32 1.76589,0 5.3969,0.6831 5.3969,1.01531 0,0.14558 -0.036,0.24545 -0.08,0.22194 -0.044,-0.0235 -0.8,-0.15491 -1.68,-0.29197 z M 232,217.02416 c -12.35423,-5.65545 -13.21459,-6.56934 -11.05638,-11.74417 0.22021,-0.528 0.57804,-1.41494 0.79518,-1.97099 0.21715,-0.55604 0.81475,-1.38515 1.32801,-1.84246 0.51325,-0.45732 0.93319,-0.94308 0.93319,-1.07948 0,-0.47057 4.63092,-0.008 6.03715,0.60278 0.79169,0.34397 1.84753,0.55116 2.43645,0.47812 2.0309,-0.25189 6.76039,1.61957 8.18055,3.23704 0.83709,0.95339 0.90707,1.20946 0.74703,2.73346 -0.0971,0.92484 -0.59611,2.56612 -1.10888,3.64728 -0.51276,1.08116 -0.9323,2.06666 -0.9323,2.19 0,0.7072 -2.17292,3.70545 -2.86852,3.95805 -1.24528,0.45222 -3.25009,0.35864 -4.49148,-0.20963 z m 4.91891,-1.42417 c 0.95632,-1.2566 2.88749,-5.37264 3.38149,-7.20722 0.44717,-1.66067 0.20723,-2.65804 -0.88629,-3.68396 -1.13093,-1.06103 -5.00943,-2.41813 -7.14574,-2.50032 -0.9396,-0.0362 -2.12424,-0.27382 -2.63252,-0.52816 -0.50829,-0.25434 -1.80429,-0.4657 -2.88,-0.46968 -1.07572,-0.004 -2.14397,-0.15839 -2.3739,-0.34312 -0.29142,-0.23413 -0.38836,-0.2342 -0.32,-2.4e-4 0.0539,0.18459 -0.26015,0.82096 -0.69795,1.41416 -1.03922,1.40811 -2.20851,4.24628 -2.45526,5.9596 -0.18344,1.27371 -0.11621,1.43641 1.04762,2.53522 0.71968,0.67947 2.86149,1.93042 5.08364,2.96916 2.112,0.98724 4.344,2.03318 4.96,2.32431 0.616,0.29113 1.79667,0.53853 2.62372,0.54979 1.33197,0.0181 1.5941,-0.0983 2.29519,-1.01954 z m -8.21305,-5.28 c -0.25614,-0.46604 0.43834,-2.32 0.86905,-2.32 0.70125,0 0.86047,0.92852 0.30468,1.77677 -0.51855,0.7914 -0.93213,0.98281 -1.17373,0.54323 z m -2.58057,-1.28672 c -0.22197,-0.35915 0.67284,-2.31328 1.05926,-2.31328 0.1845,0 0.33545,0.13223 0.33545,0.29383 0,0.16161 0.0792,0.50031 0.17607,0.75267 0.18616,0.48511 -1.30878,1.69071 -1.57078,1.26678 z M 249.92,216.4268 c 0,-0.31403 0.3403,-1.51053 0.75623,-2.65888 0.41593,-1.14836 1.23431,-3.58104 1.81862,-5.40596 0.58432,-1.82491 1.76095,-4.75998 2.61474,-6.52236 0.85379,-1.76238 1.51141,-3.23942 1.46138,-3.28232 -0.05,-0.0429 -1.24297,-0.47182 -2.65097,-0.95319 -3.02465,-1.03407 -4.96,-1.97467 -4.96,-2.4106 0,-0.45399 0.71604,-0.38463 1.46821,0.14221 0.72554,0.50819 3.76981,1.64394 5.73179,2.1384 0.704,0.17743 1.38437,0.42591 1.51193,0.55218 0.12756,0.12627 -0.43874,1.52148 -1.25845,3.10047 -1.64608,3.17078 -2.55461,5.5127 -3.90784,10.07324 -0.49614,1.672 -1.12217,3.56242 -1.3912,4.20094 -0.56205,1.33397 -1.19444,1.87712 -1.19444,1.02587 z m -42.87027,-0.32386 c -0.005,-0.20738 -0.80369,-0.55473 -1.77408,-0.77189 -2.06085,-0.4612 -3.49992,-1.68944 -4.95787,-4.23153 -1.16632,-2.03361 -1.18133,-2.46475 -0.12934,-3.71497 0.72224,-0.85834 1.03414,-0.98456 2.43284,-0.98456 1.13761,0 2.08363,0.25603 3.25156,0.88 0.90594,0.484 1.71916,0.96714 1.80716,1.07363 0.35353,0.42783 2.64066,0.97551 3.34038,0.79989 0.46513,-0.11674 0.89554,-0.008 1.14219,0.28958 0.21769,0.26229 0.75016,0.4769 1.18328,0.4769 1.17351,0 0.72383,0.78049 -0.51997,0.90248 -0.57466,0.0563 -1.49957,-0.11254 -2.05536,-0.37533 -0.55578,-0.26279 -1.44252,-0.58024 -1.97052,-0.70545 -0.528,-0.12521 -1.17859,-0.4164 -1.44575,-0.64708 -1.85046,-1.59778 -5.53014,-2.22625 -6.5348,-1.11611 -0.79409,0.87746 -0.43997,2.07732 1.23693,4.19116 1.28328,1.61764 1.56205,1.80015 3.35826,2.19864 2.15851,0.47886 2.45849,0.71447 1.97241,1.54916 -0.18017,0.30939 -0.33197,0.39286 -0.33732,0.18548 z m 40.01193,-2.4178 c -0.0119,-0.30516 0.56417,-1.88916 1.28018,-3.52 0.71601,-1.63083 1.66421,-3.90115 2.10711,-5.04515 0.4429,-1.144 0.88533,-2.152 0.98317,-2.24 0.41278,-0.37122 -0.34576,1.82398 -2.00953,5.81562 -2.48971,5.97316 -2.33528,5.64679 -2.36093,4.98953 z m -0.38005,-3.60515 c 0.6909,-1.408 1.47168,-3.29332 1.73507,-4.1896 0.26339,-0.89628 0.79866,-2.25641 1.1895,-3.0225 0.39083,-0.7661 0.89918,-1.90478 1.12966,-2.5304 0.23049,-0.62563 0.42921,-0.87816 0.44161,-0.56118 0.0124,0.31697 -0.52855,1.90097 -1.20213,3.52 -0.67357,1.61902 -1.62462,3.96819 -2.11344,5.22036 -0.48881,1.25218 -1.23699,2.69218 -1.66261,3.2 -0.60581,0.72283 -0.50107,0.36742 0.48234,-1.63668 z M 118.5778,206.72203 c 2.18417,-2.64004 4.06946,-4.3583 4.23906,-3.86348 0.0838,0.24439 -1.19638,1.71132 -4.80608,5.50736 -1.84266,1.93778 -1.44689,0.79039 0.56702,-1.64388 z m 54.4216,1.03796 c -0.84196,-2.87987 -0.88106,-8.4413 -0.0793,-11.28 0.2734,-0.968 0.78186,-2.768 1.12992,-4 0.97471,-3.4502 1.20467,-4.15451 1.57437,-4.82188 0.35172,-0.6349 2.2189,-4.62221 4.75404,-10.15209 2.48785,-5.42672 4.3504,-7.94959 9.22156,-12.49083 3.79293,-3.53603 4.61157,-4.10826 5.63196,-3.93674 0.85746,0.14414 0.853,0.40743 -0.0387,2.28154 -0.33496,0.704 -0.7704,2.036 -0.96766,2.96 -0.19725,0.924 -0.50612,1.68 -0.68636,1.68 -0.18099,0 -0.23111,-0.25073 -0.11193,-0.56 0.11868,-0.308 0.41345,-1.352 0.65504,-2.32 0.2416,-0.968 0.54228,-2.10536 0.66819,-2.52747 l 0.22892,-0.76747 -1.03932,0.60747 c -1.22119,0.71377 -9.62015,8.9262 -9.62015,9.4065 0,0.18052 -0.57569,1.17159 -1.27931,2.2024 -0.70362,1.0308 -1.49689,2.49089 -1.76283,3.24463 -0.26594,0.75375 -0.96689,2.32074 -1.55768,3.4822 -2.2257,4.37562 -4.35359,9.57765 -5.15267,12.59669 -0.45491,1.71872 -0.9667,3.49209 -1.13731,3.94083 -0.47353,1.24548 -0.36949,6.49214 0.1698,8.5626 0.264,1.01357 0.48,1.97982 0.48,2.14724 0,0.5391 -0.91127,0.32354 -1.0806,-0.25562 z M 80,203.62993 c 0,-0.17009 0.256086,-0.58841 0.569078,-0.9296 0.312996,-0.34119 0.947207,-1.26834 1.409364,-2.06034 0.976662,-1.67371 5.664406,-6.75173 5.686572,-6.16 0.0083,0.22 -0.129014,0.4 -0.305014,0.4 -0.176,0 -0.323152,0.18 -0.327005,0.4 -0.0038,0.22 -0.763478,1.20646 -1.688054,2.19212 -0.924579,0.98567 -2.24016,2.60392 -2.923517,3.59613 C 81.109078,202.97371 80,204.14703 80,203.62993 Z M 58.241536,200.739 c -9.6e-4,-0.20955 0.970464,-1.45183 2.158464,-2.76063 1.188,-1.3088 2.734163,-3.08135 3.43592,-3.93901 1.855386,-2.26756 5.856864,-6.37333 6.03617,-6.19348 0.08451,0.0848 -0.639005,1.01811 -1.607815,2.07411 -0.968809,1.056 -2.85407,3.216 -4.189465,4.8 -3.142071,3.72701 -5.831332,6.5019 -5.833274,6.01901 z m 102.213144,-3.4173 c 1.24593,-1.20906 3.63332,-3.29706 5.30532,-4.64 1.672,-1.34294 3.088,-2.54971 3.14667,-2.68171 0.0587,-0.132 0.2563,-0.24 0.43918,-0.24 0.52702,0 -0.36912,0.91795 -1.96744,2.01532 -1.13448,0.77891 -6.15995,5.02791 -7.0635,5.97216 -0.0908,0.0949 -0.60619,0.53252 -1.14532,0.97252 -0.53913,0.44 0.0392,-0.18923 1.28509,-1.39829 z m 75.06918,0.82766 c -0.002,-0.22586 0.35614,-1.12107 0.79614,-1.98937 0.44,-0.86829 0.8,-1.71004 0.8,-1.87054 0,-0.35259 -1.00641,-0.75847 -4.08888,-1.64902 -1.28088,-0.37005 -2.25556,-0.79145 -2.16596,-0.93643 0.16071,-0.26003 1.75192,-0.0225 4.09484,0.61136 2.9883,0.80842 3.61665,0.9133 4.46039,0.74455 0.66629,-0.13325 0.89961,-0.0554 0.89961,0.30008 0,0.51119 -1.59967,0.98284 -2.35299,0.69376 -0.28957,-0.11111 -0.5019,0.1407 -0.62107,0.73655 -0.20441,1.02206 -1.81613,3.9933 -1.82208,3.35906 z m 1.28613,-0.61108 c -0.0103,-0.3948 1.23421,-2.65829 1.46162,-2.65829 0.28955,0 0.0827,0.54882 -0.66326,1.76 -0.43361,0.704 -0.79287,1.10823 -0.79836,0.89829 z m -8.18291,-0.7592 c -0.12645,-0.2046 0.18035,-1.25559 0.68179,-2.33554 1.1295,-2.43263 1.03439,-2.30828 1.44861,-1.89406 0.2491,0.24909 0.10536,0.75886 -0.51013,1.8091 -0.47132,0.80425 -0.77538,1.59426 -0.67567,1.75559 0.0997,0.16132 -0.0203,0.46062 -0.26671,0.6651 -0.34029,0.28241 -0.50327,0.28236 -0.67789,-1.9e-4 z m 4.20257,-1.57909 c 0.83375,-1.72829 1.27223,-2.14598 0.75583,-0.72 -0.48904,1.35042 -1.02844,2.32 -1.29066,2.32 -0.13037,0 0.1103,-0.72 0.53483,-1.6 z m -1.77624,0.72 c 0.0318,-0.5688 1.24077,-2.43931 1.25318,-1.93888 0.007,0.29761 -0.13059,0.63011 -0.30659,0.73888 -0.176,0.10878 -0.32,0.47728 -0.32,0.81889 0,0.34161 -0.144,0.62111 -0.32,0.62111 -0.176,0 -0.31396,-0.108 -0.30659,-0.24 z M 186.4494,195.2441 c -1.5819,-0.55733 -3.33258,-2.18853 -4.24733,-3.95746 -0.39279,-0.75957 -0.40741,-1.23523 -0.089,-2.89769 0.68065,-3.55435 2.3904,-6.26064 4.61625,-7.30692 l 1.4024,-0.6592 -0.62583,-0.67176 c -0.34421,-0.36947 -0.62584,-0.9241 -0.62584,-1.23253 0,-0.30843 -0.144,-0.64977 -0.32,-0.75855 -0.176,-0.10877 -0.3192,-0.65727 -0.31821,-1.21888 0.005,-2.96321 1.63268,-5.18466 4.58668,-6.26058 1.02767,-0.37429 2.27662,-0.68054 2.77545,-0.68054 1.13123,0 3.07384,1.53024 2.57539,2.02869 -0.18662,0.18663 -0.33931,0.68428 -0.33931,1.10592 0,1.23096 -1.1805,2.62539 -2.22261,2.62539 -0.49446,0 -1.07829,-0.216 -1.29739,-0.48 -0.54139,-0.65232 -1.03629,-0.60381 -2.06074,0.20203 -2.13525,1.67958 -1.67091,3.16089 1.79712,5.73307 4.1117,3.04958 4.55251,3.62285 5.00511,6.50901 0.24742,1.57777 0.19724,2.05087 -0.33417,3.15075 -0.84238,1.74354 -1.14679,2.10584 -3.05263,3.63324 -1.13146,0.90678 -3.51603,1.74687 -4.84555,1.7071 -0.45603,-0.0136 -1.52691,-0.27063 -2.37974,-0.57109 z m 5.92385,-5.24709 c 1.53866,-1.76568 1.69305,-2.27837 1.26374,-4.19672 -0.40682,-1.81786 -0.73508,-2.22747 -2.66804,-3.32925 -1.19257,-0.67977 -1.69239,-0.54932 -1.34673,0.35147 0.12077,0.31472 -0.12684,0.62939 -0.71833,0.91288 -1.23195,0.59046 -2.12857,2.57356 -2.15908,4.77534 -0.0355,2.55949 0.38292,2.95531 2.83472,2.68186 1.62455,-0.18119 2.07939,-0.37584 2.79372,-1.19558 z M 147.52,189.62636 c 0,-0.14679 1.6944,-2.01277 3.76533,-4.14663 2.07093,-2.13385 4.59852,-4.79615 5.61687,-5.9162 1.01835,-1.12005 1.92915,-1.95885 2.024,-1.864 0.32791,0.32791 -0.41515,1.2096 -4.43861,5.26669 -5.75683,5.80496 -6.96759,6.96229 -6.96759,6.66014 z m -12.48,-2.41201 c 0.968,-1.13068 2.84,-3.21958 4.16,-4.642 5.01174,-5.40063 6.48599,-7.05058 7.77879,-8.70587 1.2874,-1.64839 1.82121,-2.05524 1.82121,-1.38808 0,0.33926 -4.00494,4.87672 -9.56686,10.83893 -1.86623,2.00054 -3.50391,3.8287 -3.6393,4.0626 -0.13539,0.23389 -0.71139,0.75487 -1.28,1.15772 -0.83789,0.59364 -0.70026,0.34283 0.72616,-1.3233 z m -73.015693,-6.73656 c 1.765485,-1.40921 3.885751,-3.35321 4.711703,-4.32 1.404742,-1.64427 2.06399,-2.12048 2.06399,-1.49095 0,0.65401 -6.526138,6.77315 -7.223651,6.77315 -0.129767,0 -0.707923,0.36 -1.284794,0.8 -0.57687,0.44 -1.145235,0.8 -1.263033,0.8 -0.117802,0 1.230304,-1.15299 2.995785,-2.5622 z m 50.148103,0.9622 c 0.23341,-0.43565 2.93454,-3.71419 3.90742,-4.74268 0.2199,-0.23248 1.47334,-1.7574 2.78541,-3.38871 2.46923,-3.07002 3.37476,-4.00479 3.37476,-3.48372 0,0.29103 -2.28337,3.36579 -3.22564,4.34361 -0.2499,0.25933 -1.48291,1.6055 -2.74003,2.9915 -3.75496,4.13994 -4.37158,4.78333 -4.10192,4.28 z m 58.86759,-0.96 c 0.31856,-0.352 0.65119,-0.64 0.73919,-0.64 0.088,0 -0.10063,0.288 -0.41919,0.64 -0.31856,0.352 -0.65119,0.64 -0.73919,0.64 -0.088,0 0.10063,-0.288 0.41919,-0.64 z m 1.12,-0.75489 c 0,-0.2353 3.73488,-3.02114 4.74888,-3.54217 1.0417,-0.53528 1.97112,-0.49513 1.97112,0.0851 0,0.1585 -0.48312,0.36657 -1.07359,0.46239 -0.59047,0.0958 -2.10247,0.83372 -3.36,1.63978 -1.25753,0.80605 -2.28641,1.41573 -2.28641,1.35485 z M 86.783072,165.63824 c 1.285312,-1.29896 2.820301,-2.96359 3.411091,-3.69917 1.173075,-1.46057 1.76433,-1.5381 0.831703,-0.10906 -0.802679,1.22992 -5.785165,6.16998 -6.222976,6.16998 -0.196208,0 0.694873,-1.06279 1.980182,-2.36175 z M 178.56,167.64715 c 5.97559,-3.92405 7.94833,-4.81528 9.41383,-4.25292 0.95389,0.36604 0.50654,0.70491 -0.71439,0.54115 -1.24297,-0.16671 -3.34205,0.67972 -5.6581,2.28157 -1.23662,0.85529 -2.97138,1.78832 -3.28018,1.76422 -0.13264,-0.0103 -0.0251,-0.16065 0.23884,-0.33402 z m -28.95384,-8.29759 c 1.41138,-1.49026 3.41858,-3.77997 4.46044,-5.08824 1.04186,-1.30827 1.95275,-2.20328 2.02421,-1.98891 0.21639,0.6492 -2.27334,3.57648 -5.75639,6.76802 l -3.29442,3.0187 z m 12.82941,-0.38957 c 1.37431,-2.35585 8.19238,-10.47566 12.15863,-14.48 1.04596,-1.056 2.28739,-2.424 2.75875,-3.04 0.47135,-0.616 0.86376,-0.95028 0.87202,-0.74285 0.008,0.20743 -0.16497,0.56743 -0.38497,0.8 -0.22,0.23257 -0.82412,0.99885 -1.34249,1.70285 -0.51836,0.704 -2.10839,2.432 -3.53338,3.84 -1.42499,1.408 -3.35481,3.48423 -4.28848,4.61383 -0.93367,1.1296 -1.9171,2.27334 -2.18539,2.54163 -0.2683,0.26829 -1.27981,1.54007 -2.24781,2.82618 -1.57787,2.09639 -2.43624,3.01722 -1.80688,1.93836 z m 78.35636,0.0931 c 0.10434,-0.16882 0.32141,-1.21282 0.48238,-2.32 0.74957,-5.1555 2.26689,-12.20975 3.66801,-17.05306 0.45824,-1.584 1.18348,-4.60799 1.61165,-6.71999 0.99179,-4.89215 2.18763,-9.50293 3.36127,-12.96 0.50788,-1.496 1.29128,-4.52 1.74089,-6.72 0.44961,-2.2 1.17243,-5.728 1.60625,-7.84 0.43383,-2.112 0.86094,-4.25367 0.94913,-4.75926 0.18037,-1.034078 0.40801,-1.367889 0.72003,-1.05587 0.11634,0.116346 0.048,0.96835 -0.15181,1.89333 -0.19984,0.92499 -0.65821,3.0498 -1.01861,4.7218 -0.36039,1.672 -0.72165,3.328 -0.80279,3.68 -0.40107,1.73983 -0.58293,2.67746 -0.96205,4.96 -0.13155,0.792 -0.71526,2.88 -1.29714,4.64 -0.94654,2.86299 -2.71187,9.2477 -3.14097,11.36 -0.0894,0.44 -0.38123,1.88 -0.64853,3.2 -0.26731,1.31999 -0.71056,3.19199 -0.98501,4.15999 -0.86859,3.06368 -2.67308,10.82287 -2.90236,12.48 -0.0852,0.616 -0.35555,1.984 -0.6007,3.04 -0.24514,1.056 -0.61262,2.748 -0.81659,3.76 -0.20398,1.012 -0.51305,1.84 -0.68681,1.84 -0.17377,0 -0.23058,-0.13812 -0.12624,-0.30694 z m 28.67333,-0.40822 c -0.0139,-0.30534 -0.38179,-1.7855 -0.81756,-3.28923 -1.00339,-3.4625 -2.3511,-11.05628 -2.55486,-14.39561 -0.0859,-1.408 -0.23777,-4 -0.33746,-5.76 -0.0997,-1.75999 -0.24573,-4.27999 -0.32454,-5.59999 -0.14396,-2.41108 -0.29236,-5.56987 -0.62392,-13.28 -0.21981,-5.11142 -0.49208,-9.97204 -0.61842,-11.04 -0.0521,-0.44 -0.19914,-1.54047 -0.32685,-2.44549 -0.13239,-0.93812 -0.10517,-1.72401 0.0633,-1.82814 0.16254,-0.10045 0.45797,1.00002 0.65653,2.44549 0.3394,2.47087 0.4307,3.89569 0.86551,13.50814 0.0955,2.112 0.23569,4.848 0.31146,6.08 0.0758,1.232 0.29129,5.624 0.47895,9.76 0.38611,8.50971 1.20024,15.16818 2.61139,21.35757 0.53138,2.33067 0.89315,4.41867 0.80394,4.64 -0.0988,0.24513 -0.17209,0.18543 -0.18748,-0.15274 z M 72.64,157.58358 c 2.104333,-2.48202 7.042675,-7.11814 7.240758,-6.79764 0.218692,0.35386 -1.235056,1.80867 -5.673456,5.67764 -1.302016,1.13497 -2.007302,1.63897 -1.567302,1.12 z m 35.4395,-0.3391 c 0.77233,-1.07138 6.60258,-6.84449 6.91223,-6.84449 0.71079,0 -0.21224,1.13775 -3.34932,4.12843 -3.70253,3.52974 -4.6947,4.28609 -3.56291,2.71606 z m 23.44147,-2.90126 c 6.4e-4,-0.14477 1.72853,-1.98654 3.84,-4.09281 2.41689,-2.41095 3.83903,-3.6217 3.83903,-3.26839 0,0.30866 -1.332,1.84027 -2.96,3.40358 -3.2711,3.14113 -4.7205,4.35667 -4.71903,3.95762 z M 203.52,153.64959 c 0,-0.14872 0.30555,-0.54472 0.67899,-0.88 0.37344,-0.33528 1.33173,-1.4736 2.12953,-2.5296 0.7978,-1.056 1.67177,-2.1 1.94217,-2.32 0.56133,-0.4567 1.11459,-0.53169 0.95598,-0.12957 -0.30978,0.78535 -5.16571,6.12957 -5.56952,6.12957 -0.0754,0 -0.13715,-0.12168 -0.13715,-0.2704 z m -160.310317,-0.5296 c 1.744746,-2.37422 7.032509,-7.0248 7.028131,-6.18123 -0.0013,0.23168 -0.469203,0.74456 -1.04,1.13973 -0.570796,0.39517 -1.901814,1.52149 -2.957814,2.50293 -3.161018,2.93784 -3.584307,3.29244 -3.030317,2.53857 z M 192.96,153.27627 c 0,-0.22552 0.48162,-1.14494 1.07026,-2.04315 2.70189,-4.12283 4.00218,-6.19845 4.53124,-7.23313 0.64195,-1.25545 3.29098,-5.17464 4.32582,-6.4 l 0.67563,-0.8 -0.38525,0.8 c -0.2119,0.44 -0.85205,1.448 -1.42256,2.24 -0.57052,0.792 -1.47138,2.304 -2.00193,3.36 -0.90517,1.80167 -4.87747,8.03429 -6.19697,9.72316 -0.32793,0.41973 -0.59624,0.57864 -0.59624,0.35312 z M 60.615718,152.35928 c 0.225613,-0.36505 0.755284,-0.87106 5.067837,-4.84153 1.013952,-0.93352 1.928375,-1.61249 2.032042,-1.50882 0.321379,0.32137 -0.101722,0.74571 -3.774874,3.78586 -1.959238,1.6216 -3.455491,2.77562 -3.325005,2.56449 z m 86.172542,-0.83929 c 0.37414,-0.528 2.10196,-2.35065 3.83962,-4.05033 1.73766,-1.69968 3.438,-3.60768 3.77852,-4.24 0.68999,-1.28123 1.1136,-1.47546 1.1136,-0.51059 0,0.35149 -0.51808,1.21254 -1.1513,1.91343 -1.8753,2.07573 -8.3202,7.93149 -7.58044,6.88749 z m 38.17174,0.3967 c 0,-0.29111 3.73185,-4.93209 4.19721,-5.21969 0.81104,-0.50126 0.52211,0.22144 -0.58432,1.46149 -2.84529,3.18894 -3.61289,3.98741 -3.61289,3.7582 z m -79.48379,-5.10655 c 0.86008,-0.91842 1.95979,-2.10251 2.44379,-2.63131 0.56806,-0.62066 0.88,-0.79136 0.88,-0.48157 0,0.50024 -4.12946,4.78273 -4.61182,4.78273 -0.15167,0 0.42795,-0.75143 1.28803,-1.66985 z M 124.8,146.61119 c 0,-0.35565 5.30435,-6.2399 5.76736,-6.39786 0.93392,-0.31863 -0.0215,0.96623 -2.72736,3.66766 -1.672,1.66928 -3.04,2.89787 -3.04,2.7302 z m -47.357789,-0.58963 c 0.0022,-0.24647 4.854711,-1.74067 5.048208,-1.55442 0.09203,0.0886 -3.020179,1.24926 -4.330419,1.615 -0.396,0.11054 -0.719005,0.0833 -0.717789,-0.0606 z m 7.554586,-0.59048 c -0.230531,-0.23053 -0.83712,-0.48126 -1.347975,-0.55717 -0.706361,-0.10496 -0.60063,-0.14951 0.441456,-0.18597 0.753652,-0.0264 1.887239,-0.26395 2.519079,-0.52795 1.383305,-0.57798 1.495065,-0.58784 1.197033,-0.10561 -0.162771,0.26337 -0.04977,0.30093 0.381117,0.12667 1.621719,-0.65587 2.716368,-0.87451 4.852493,-0.96923 2.162499,-0.0959 2.818246,0.12247 1.960234,0.65275 -0.197872,0.1223 -1.385872,0.40981 -2.64,0.63893 -1.254128,0.22911 -3.329645,0.62586 -4.612263,0.88165 -1.922441,0.38339 -2.405641,0.39146 -2.751174,0.0459 z m 1.956537,-0.66442 c -0.106332,-0.10633 -0.382336,-0.1177 -0.613334,-0.0252 -0.255274,0.10215 -0.17945,0.17798 0.193334,0.19333 0.337332,0.0139 0.526333,-0.0617 0.42,-0.16807 z M 92.48,143.64445 c 0.580598,-0.3308 -1.463555,0.009 -2.4,0.39864 -0.403638,0.16807 -0.16728,0.19416 0.64,0.0707 0.704,-0.1077 1.496,-0.31889 1.76,-0.4693 z m -9.28,0.35554 c 0.264,-0.17061 0.624,-0.31019 0.8,-0.31019 0.176,0 0.104,0.13958 -0.16,0.31019 -0.264,0.17062 -0.624,0.3102 -0.8,0.3102 -0.176,0 -0.104,-0.13958 0.16,-0.3102 z m 119.80481,-0.40774 c 0.19961,-0.62595 6.04504,-7.28767 6.23167,-7.1019 0.14608,0.1454 -0.80783,1.36237 -3.00165,3.82941 -0.93916,1.05613 -2.09086,2.35223 -2.55932,2.88023 -0.51216,0.57725 -0.77957,0.73364 -0.6707,0.39226 z m 14.12962,-5.19226 c 4.66576,-4.89152 5.58557,-5.71732 5.58557,-5.01467 0,0.40893 -9.85473,10.29467 -10.26238,10.29467 -0.19772,0 1.90684,-2.376 4.67681,-5.28 z M 97.76,142.47623 c -1.14105,-0.24667 -1.214582,-0.65089 -0.212659,-1.169 1.218416,-0.63007 2.10911,-0.65402 1.012659,-0.0272 -0.745904,0.4264 -0.632304,0.45809 1.68,0.46866 2.56498,0.0118 3.59864,0.63321 1.12,0.67339 -0.748,0.0121 -1.72,0.0604 -2.16,0.1073 -0.44,0.0469 -1.088,0.023 -1.44,-0.0531 z m -9.44,-0.39624 c 0.264,-0.17061 0.696,-0.30228 0.96,-0.2926 0.316499,0.0116 0.261997,0.11127 -0.16,0.2926 -0.879709,0.37803 -1.38495,0.37803 -0.8,0 z m -56.178838,-0.46982 c -0.341639,-0.2584 -0.904348,-0.4744 -1.250463,-0.48 -0.346116,-0.006 -1.234084,-0.24114 -1.973262,-0.52344 -1.173451,-0.44814 -1.763485,-0.46437 -4.650698,-0.12787 -6.092195,0.71002 -7.464613,0.74206 -7.926867,0.18508 -0.23003,-0.27717 -0.736604,-0.50395 -1.125721,-0.50395 -1.312018,0 -1.14761,-0.42679 0.514556,-1.33575 1.860904,-1.01764 3.173113,-1.12988 4.878584,-0.41729 0.872077,0.36438 1.828402,0.44083 3.79908,0.30371 3.466462,-0.24119 6.667764,-0.79655 6.466723,-1.12184 -0.08834,-0.14294 -0.914928,-0.50387 -1.836858,-0.80206 -0.92193,-0.2982 -1.873036,-0.72715 -2.113569,-0.95323 -0.621408,-0.58408 0.346087,-1.05385 4.277333,-2.07691 3.050198,-0.79378 3.19552,-0.87055 3.104288,-1.63984 -0.05275,-0.4448 0.180112,-1.14771 0.518771,-1.56593 0.489351,-0.60432 0.867245,-0.73937 1.855712,-0.66316 2.827082,0.21798 4.804896,0.12672 5.507776,-0.25412 0.714538,-0.38717 0.722627,-0.43094 0.188631,-1.02101 -0.306858,-0.33907 -0.498804,-0.66861 -0.426551,-0.73232 0.07226,-0.0637 1.882023,-0.21471 4.021709,-0.33558 l 3.890333,-0.21975 0.880864,1.15487 c 0.60864,0.79797 0.867872,1.50041 0.838829,2.27296 l -0.04203,1.11809 1.670835,-0.15475 c 0.91896,-0.0851 1.994835,-0.16405 2.390835,-0.17542 0.592544,-0.017 0.721802,-0.20477 0.730176,-1.06066 0.01322,-1.35081 0.650109,-2.16 1.700054,-2.16 1.345908,0 2.839616,-1.56874 3.061402,-3.21519 0.170266,-1.264 0.36815,-1.52439 2.059277,-2.70977 1.788547,-1.25368 1.957587,-1.30545 3.84,-1.17595 2.501721,0.1721 4.049091,0.78561 4.049091,1.6054 0,1.05456 0.80601,1.47694 1.929971,1.01137 0.533802,-0.2211 1.009635,-0.34663 1.057405,-0.27894 0.04777,0.0677 0.223155,0.44986 0.389741,0.84927 l 0.302883,0.7262 1.209056,-0.99696 c 0.664979,-0.54833 1.405149,-0.92171 1.644816,-0.82974 0.777587,0.29839 1.520922,2.24832 1.621235,4.25286 0.05391,1.07721 0.262128,2.26521 0.462714,2.64 0.292422,0.5464 0.274739,0.68145 -0.08924,0.68145 -0.583235,0 -0.885484,-0.97741 -1.016563,-3.28729 -0.117654,-2.0733 -0.73288,-3.75271 -1.374749,-3.75271 -0.234576,0 -0.858502,0.432 -1.386502,0.96 -1.164221,1.16422 -1.325619,1.17862 -1.867242,0.16658 -0.332396,-0.62108 -0.592748,-0.75121 -1.198729,-0.59912 -0.980125,0.246 -2.324797,-0.45579 -2.324797,-1.21332 0,-0.83711 -1.491405,-1.4703 -3.56272,-1.51259 -1.60711,-0.0328 -1.97985,0.0932 -3.435136,1.16082 -1.440848,1.05708 -1.632992,1.33408 -1.637283,2.36039 -0.004,0.94754 -0.241952,1.37696 -1.285783,2.32 -0.875728,0.79116 -1.58648,1.15724 -2.24686,1.15724 -1.22953,0 -1.889828,1.17228 -1.34,2.37902 0.346835,0.76122 0.316918,0.7833 -1.308634,0.96601 C 54.668611,132.08786 53.272,132.2053 52.48,132.246 l -1.44,0.074 -0.0093,-1.28 c -0.01891,-2.58929 -1.147242,-3.51856 -3.687366,-3.03683 -0.918852,0.17425 -2.316615,0.31683 -3.106141,0.31683 -1.257255,0 -1.384643,0.0613 -1.025888,0.49356 0.576819,0.69502 0.143539,1.0031 -2.169715,1.54275 -1.494548,0.34865 -2.269156,0.38165 -3.084573,0.13139 -0.598871,-0.1838 -1.454583,-0.24239 -1.901584,-0.1302 -0.904307,0.22697 -1.431223,1.35466 -0.887171,1.89871 0.629068,0.62907 0.382764,1.18359 -0.528212,1.18921 -1.179107,0.007 -6.453222,1.4398 -6.882934,1.86951 -0.24171,0.24171 -0.08659,0.43811 0.531658,0.67317 0.480111,0.18254 1.09333,0.33189 1.362703,0.33189 0.571387,0 2.348567,1.20098 2.348567,1.58711 0,0.42087 -1.333464,0.6479 -5.803426,0.98807 -3.589565,0.27317 -4.454512,0.24312 -6.07311,-0.21104 -1.772739,-0.4974 -1.97631,-0.49563 -3.350707,0.0292 l -1.463299,0.55884 0.947312,0.57609 c 0.521021,0.31686 1.432393,0.61092 2.02527,0.65348 1.41869,0.10184 5.137117,-0.26661 7.212782,-0.7147 1.367417,-0.2952 1.933627,-0.26605 3.260127,0.16783 0.882918,0.28878 1.825814,0.52507 2.095324,0.52507 0.269511,0 1.076938,0.30592 1.794284,0.67982 l 1.304262,0.67982 2.50081,-0.84984 c 1.375446,-0.4674 3.924963,-1.03678 5.66559,-1.26529 L 45.28,139.30904 43.36,139.07482 c -1.056,-0.12882 -2.124067,-0.26136 -2.373482,-0.29453 -0.249417,-0.0332 -0.515878,-0.24769 -0.592137,-0.47671 -0.100599,-0.30213 0.243427,-0.4081 1.253481,-0.38612 0.765677,0.0167 2.44064,-0.10377 3.722144,-0.26763 1.314804,-0.16812 2.8485,-0.1802 3.52,-0.0277 0.818832,0.18593 1.777581,0.11853 3.073866,-0.21609 1.110509,-0.28667 2.001603,-0.36857 2.170666,-0.1995 0.169062,0.16906 0.08701,0.28679 -0.199876,0.28679 -0.267667,0 -1.270361,0.26639 -2.228204,0.59197 -1.460573,0.49646 -1.938752,0.53183 -2.963997,0.21921 -0.81753,-0.24929 -1.858448,-0.28419 -3.142461,-0.10536 -1.807699,0.25175 -1.858781,0.2819 -0.873341,0.51545 1.175469,0.27859 1.627687,0.75807 1.051072,1.11444 -0.211344,0.13062 -1.725395,0.32558 -3.364557,0.43326 -2.016563,0.13246 -3.676998,0.45801 -5.134832,1.00673 -2.431155,0.91509 -4.2212,1.03396 -5.13718,0.34114 z m 59.050035,-0.59458 c 1.121901,-0.61241 1.295725,-0.80734 0.804333,-0.90197 -0.682036,-0.13135 -6.091735,0.49605 -7.136589,0.82767 -0.354794,0.11261 -0.736563,0.0567 -0.848375,-0.1242 -0.124144,-0.20086 -2.159244,-0.33862 -5.226931,-0.3538 -2.762998,-0.0137 -6.247635,-0.0384 -7.743635,-0.0549 -1.496,-0.0165 -4.448,0.0753 -6.56,0.20401 -2.957331,0.18026 -4.538781,0.11413 -6.88,-0.28768 -1.672,-0.28696 -3.603482,-0.54941 -4.292182,-0.58322 -0.688698,-0.0338 -1.302973,-0.21231 -1.365053,-0.39665 -0.152375,-0.45245 2.267405,-0.38558 3.940361,0.1089 2.224516,0.6575 9.767866,1.03094 11.712688,0.57984 0.953466,-0.22116 2.656061,-0.31884 3.924186,-0.22515 1.232,0.091 5.192,0.17137 8.8,0.17854 6.35079,0.0126 8.989693,-0.29318 10.13417,-1.17436 0.244147,-0.18798 0.48655,-0.0873 0.697574,0.28965 0.458605,0.81927 5.577168,0.86003 7.949066,0.0633 1.36214,-0.45756 1.62933,-0.47585 1.48576,-0.10172 -0.10589,0.27594 0.0242,0.45616 0.32915,0.45616 0.29519,0 0.43453,-0.18154 0.33614,-0.43794 -0.0997,-0.25984 0.0996,-0.50793 0.49004,-0.61004 0.36196,-0.0947 0.6581,-0.0218 0.6581,0.162 0,0.21838 0.63582,0.25937 1.83569,0.11835 1.34092,-0.1576 1.74032,-0.12037 1.48182,0.13812 -0.33298,0.33298 -0.92476,0.51585 -2.03751,0.62962 -0.264,0.027 0.096,0.22918 0.8,0.4493 1.25104,0.39116 1.20759,0.40387 -1.92,0.56159 -1.76,0.0888 -3.63105,0.0416 -4.157888,-0.10481 -1.593645,-0.44286 -5.189005,-0.33038 -5.380371,0.16831 -0.09171,0.23898 -0.575111,0.51689 -1.074237,0.61759 -0.499126,0.10071 -1.195504,0.27347 -1.547504,0.38392 -0.352,0.11046 0.004,-0.15073 0.791197,-0.58041 z m 48.076973,-2.00699 c -1.26949,-0.63327 -2.30817,-1.23393 -2.30817,-1.33481 0,-0.10087 0.23003,-0.43758 0.51118,-0.74825 0.4783,-0.52852 0.432,-0.58038 -0.72,-0.80636 -2.19524,-0.43063 -7.81992,-0.23105 -9.87118,0.35026 -9.28442,2.63114 -9.10471,2.61259 -15.36,1.58546 -0.528,-0.0867 -1.79209,-0.24489 -2.80909,-0.35154 -1.017,-0.10665 -1.90687,-0.28738 -1.97748,-0.40163 -0.16459,-0.26631 3.61805,0.11026 7.43642,0.74031 1.9253,0.31769 3.21961,0.38815 3.68,0.20034 l 0.71015,-0.28971 -0.7164,-0.21272 c -0.39402,-0.11699 -0.65074,-0.31897 -0.57048,-0.44882 0.0803,-0.12986 -0.46136,-0.427 -1.2036,-0.66032 -0.78837,-0.24781 -1.1289,-0.47456 -0.81895,-0.54531 0.29181,-0.0666 1.59392,0.23586 2.89359,0.67214 l 2.36302,0.79324 2.22641,-0.64507 c 1.22453,-0.35479 2.84803,-0.77319 3.60779,-0.92977 0.75976,-0.15659 1.49522,-0.35506 1.63434,-0.44104 0.24204,-0.14959 3.67829,-0.59644 4.34428,-0.56494 1.85267,0.0876 5.79899,0.83173 5.98803,1.12905 0.36399,0.57249 0.30307,0.86136 -0.22433,1.06374 -0.64534,0.24765 1.32455,1.5818 2.94973,1.99776 2.56896,0.65753 6.31717,0.75979 8.38947,0.22889 1.09384,-0.28023 2.7389,-0.50951 3.65571,-0.50951 0.91681,0 2.52518,-0.23435 3.57416,-0.5208 1.04898,-0.28643 3.34723,-0.574 5.10723,-0.63904 1.76,-0.065 4.28,-0.20928 5.6,-0.32055 1.32,-0.11126 2.30403,-0.0997 2.18673,0.0257 -0.3181,0.33999 -4.18085,0.7661 -7.61853,0.84043 -1.6675,0.036 -3.52655,0.20215 -4.13123,0.36911 -0.60468,0.16696 -2.40837,0.41991 -4.0082,0.56211 -1.59982,0.1422 -3.48477,0.41363 -4.18877,0.60318 -0.704,0.18955 -2.79732,0.34807 -4.65183,0.35227 -3.23717,0.007 -3.46401,-0.0383 -5.68,-1.14376 z M 83.376922,138.9503 C 83.279616,138.85294 83.2,138.66896 83.2,138.54141 c 0,-0.34793 2.562426,-1.31311 3.84,-1.4464 0.616,-0.0643 2.170102,-0.46324 3.453558,-0.88661 1.369834,-0.45186 2.284333,-0.62081 2.214359,-0.40908 -0.102887,0.31132 -2.800074,1.31342 -7.810995,2.90205 -0.738692,0.23419 -1.422692,0.34619 -1.52,0.24888 z m 96.007898,-1.32886 c -0.90201,-0.10388 -1.63581,-0.36562 -1.71703,-0.61247 -0.10711,-0.32552 0.004,-0.356 0.45519,-0.12446 0.84228,0.43256 15.0178,0.21572 17.7437,-0.27142 2.35284,-0.42048 2.69971,-0.88487 0.99155,-1.32749 -0.56003,-0.14512 -1.01823,-0.38771 -1.01823,-0.53909 0,-0.15138 -0.54,-0.37654 -1.2,-0.50035 -1.36984,-0.25697 -4.44682,-2.70676 -4.90137,-3.90231 -0.17198,-0.45236 -0.84534,-1.00522 -1.65433,-1.35828 -0.75037,-0.32748 -1.70442,-0.91982 -2.12012,-1.31631 -0.66653,-0.63572 -0.73707,-0.93287 -0.59706,-2.51505 0.17965,-2.02999 -0.37321,-3.29279 -2.1935,-5.01026 -0.62104,-0.58597 -1.1839,-1.54523 -1.40823,-2.4 -1.06479,-4.05722 -1.34677,-4.70506 -2.74233,-6.3004 -1.4652,-1.67494 -2.76741,-2.3178 -4.70306,-2.32172 -0.484,-9.6e-4 -0.88,-0.16065 -0.88,-0.35483 0,-0.56019 3.15575,-0.0465 4.38627,0.714 1.28553,0.7945 3.23947,3.26762 3.48873,4.4157 0.72453,3.33721 1.52118,5.23952 2.40381,5.74003 0.50756,0.28782 1.01336,0.81132 1.124,1.16332 0.11063,0.352 0.47273,1.02569 0.80466,1.4971 0.49303,0.70021 0.56528,1.18229 0.39471,2.63363 -0.18961,1.61325 -0.13864,1.83511 0.55451,2.41375 0.41982,0.35047 1.37531,0.8769 2.12331,1.16984 0.79995,0.31329 1.36,0.74045 1.36,1.03729 0,0.61909 3.39884,3.88839 4.04246,3.88839 0.25533,0 1.39422,0.4348 2.53088,0.96624 1.51138,0.70662 2.06666,1.13488 2.06666,1.5939 0,0.67281 -0.40809,0.82266 -2.96367,1.08826 -0.83802,0.0871 -1.66557,0.24606 -1.83899,0.35324 -0.17343,0.10718 -2.29578,0.16798 -4.71633,0.13509 -5.72292,-0.0777 -6.68666,-0.0658 -7.53532,0.0936 -0.38813,0.0729 -1.41452,0.0509 -2.28087,-0.0489 z M 99.2,136.87048 c 0,-0.54706 1.56075,-1.19049 2.88775,-1.19049 1.25148,0 2.87225,0.35947 2.87225,0.63704 0,0.13037 -0.58621,0.12983 -1.30269,-10e-4 -1.42409,-0.26041 -3.24631,0.0375 -3.986382,0.65168 C 99.291379,137.28252 99.2,137.26369 99.2,136.87048 Z m 71.97941,-0.12329 c 0.37102,-0.26042 1.24993,-0.29764 2.91585,-0.12344 2.61738,0.27367 2.30114,0.39707 -1.17111,0.45698 -1.81522,0.0313 -2.16835,-0.0362 -1.74474,-0.33354 z m -86.847548,-2.648 c -0.105795,-0.17119 -0.396851,-0.23277 -0.646787,-0.13686 -0.249936,0.0959 -0.618793,0.0728 -0.819686,-0.0514 -0.237072,-0.14651 0.122534,-0.72476 1.024675,-1.64766 1.348253,-1.37928 1.361146,-1.41154 0.429936,-1.07601 -0.528,0.19025 -1.279091,0.50865 -1.669091,0.70754 -0.54193,0.27638 -0.825347,0.26515 -1.20224,-0.0476 -0.410439,-0.34063 -0.706307,-0.26822 -1.764048,0.43177 -1.390685,0.92031 -1.604621,0.99195 -1.604621,0.53738 0,-0.36753 3.322861,-1.97625 5.790643,-2.80346 l 1.790643,-0.60023 0.03792,1.00864 c 0.02598,0.6914 -0.209945,1.24149 -0.750166,1.749 -0.721075,0.67742 -0.745539,0.78738 -0.287715,1.29327 0.305302,0.33735 0.376112,0.62969 0.181632,0.74988 -0.175303,0.10835 -0.405296,0.0569 -0.511095,-0.11425 z m -1.283395,-3.47739 c -0.09853,-0.0985 -0.356733,-2.1e-4 -0.573801,0.21849 -0.313684,0.31603 -0.276928,0.35279 0.179136,0.17913 0.31559,-0.12017 0.49319,-0.2991 0.394665,-0.39762 z M 156.8,133.95923 c -2.14459,-0.86484 -3.49923,-1.64166 -3.50958,-2.01257 -0.006,-0.20533 -0.11842,-0.42133 -0.25042,-0.48 -0.132,-0.0587 -0.65701,-0.66461 -1.1667,-1.34654 -0.80095,-1.07163 -0.91903,-1.49571 -0.87014,-3.12512 0.0311,-1.03688 0.205,-2.27894 0.38642,-2.76012 1.9511,-5.17508 9.19302,-9.26265 13.23937,-7.47273 1.32993,0.5883 3.37105,2.61995 3.37105,3.35542 0,0.22842 -0.54609,0.85416 -1.21353,1.39053 l -1.21353,0.97522 -1.03152,-0.92166 c -1.81274,-1.61969 -5.22878,-1.26023 -7.58142,0.79778 -0.528,0.46187 -1.04521,0.83995 -1.14935,0.84017 -0.41361,9.6e-4 -0.92591,2.56913 -0.74374,3.72857 0.42144,2.68242 3.35121,3.76875 6.41361,2.37811 1.91897,-0.87141 1.90595,-1.18155 -0.0488,-1.16284 -2.29132,0.022 -2.95486,-0.5801 -2.528,-2.2937 0.25939,-1.04132 0.41238,-1.19543 1.09882,-1.10689 0.43861,0.0566 1.94947,0.20998 3.35747,0.34092 1.408,0.13094 2.96569,0.40877 3.46153,0.6174 0.77473,0.32599 0.88335,0.52557 0.77234,1.41908 -0.0711,0.57185 -0.23823,1.32774 -0.37152,1.67974 -0.13329,0.352 -0.39111,1.03791 -0.57293,1.52424 -0.18748,0.50149 -0.79273,1.10354 -1.39824,1.39088 -0.58721,0.27865 -1.15323,0.77625 -1.25782,1.10579 -0.37091,1.16863 -5.21668,1.93546 -7.19336,1.13832 z m 5.83906,-1.20155 c 0.60223,-0.3223 0.59208,-0.37016 -0.2691,-1.26904 -0.8104,-0.84587 -1.03384,-0.91568 -2.36536,-0.73905 -1.00801,0.13372 -1.85602,0.0339 -2.69659,-0.31727 -1.65328,-0.69078 -2.18975,-0.64719 -3.02901,0.24616 l -0.71257,0.75849 1.14175,0.67365 c 0.62796,0.37051 1.60752,0.81645 2.17678,0.99098 1.19491,0.36635 4.83328,0.14889 5.7541,-0.34392 z m 1.88198,-1.73891 c 0.95212,-0.49236 2.17718,-2.57564 2.19193,-3.72752 0.0106,-0.82622 -0.9831,-1.1988 -3.573,-1.33967 -1.28698,-0.07 -2.60345,-0.23356 -2.92547,-0.36346 -0.49803,-0.20089 -0.56974,-0.0981 -0.48,0.68785 0.10003,0.87611 0.18848,0.92577 1.7055,0.95757 3.54308,0.0743 3.69698,0.21816 2.05042,1.91698 -0.84572,0.87255 -0.93713,1.11902 -0.62875,1.69523 0.4318,0.80682 0.43341,0.80699 1.65937,0.17302 z m -10.30396,-1.23438 c 0.63646,-0.67748 0.68618,-0.91029 0.393,-1.84 -0.42166,-1.33712 -0.58184,-3.3593 -0.28928,-3.65186 0.37618,-0.37618 -0.0796,-0.77253 -0.88843,-0.77253 -0.98762,0 -1.38927,0.77377 -1.63827,3.1561 -0.17172,1.64284 -0.10206,2.04201 0.50515,2.89475 0.84839,1.19147 0.98485,1.20666 1.91783,0.21354 z m 4.34041,-9.42209 c 1.82762,-0.97954 4.19505,-0.92535 5.75268,0.13168 1.1233,0.7623 1.24807,0.78215 1.96465,0.31263 1.08364,-0.71003 0.96377,-1.12392 -0.72019,-2.48661 -1.1853,-0.95918 -1.75159,-1.2 -2.82176,-1.2 -2.68638,0 -6.59155,1.87332 -8.45645,4.0566 -0.92608,1.08416 -1.33014,1.94741 -0.74114,1.5834 0.1404,-0.0868 0.4596,-0.0315 0.70933,0.12285 0.31548,0.19497 0.84865,-0.0427 1.74695,-0.77881 0.71109,-0.58269 1.86576,-1.36647 2.56593,-1.74174 z m -26.97883,13.06172 c 0.16013,-0.48041 2.75715,-1.30677 2.97895,-0.9479 0.14893,0.24099 -0.77989,0.68894 -2.35547,1.136 -0.53614,0.15212 -0.71855,0.0971 -0.62348,-0.1881 z m 62.17099,-1.39202 c -0.54976,-0.402 -0.41213,-0.448 1.34008,-0.448 1.07402,0 2.26179,-0.16539 2.6395,-0.36754 0.49698,-0.26598 1.31886,-0.27993 2.97439,-0.0505 1.32306,0.18334 2.50774,0.19922 2.80963,0.0377 0.29815,-0.15957 1.49798,-0.15681 2.79807,0.006 4.29738,0.5396 8.0667,0.43412 10.25614,-0.287 1.81589,-0.59809 8.14067,-1.34191 7.75086,-0.91153 -0.0889,0.0982 -1.60092,0.41389 -3.36,0.7016 -1.75908,0.2877 -3.9296,0.73051 -4.8234,0.98402 -1.93684,0.54936 -2.77293,0.61011 -4.38612,0.31865 -2.40975,-0.43537 -13.11638,-0.40383 -14.42903,0.0425 -1.59943,0.54384 -2.80253,0.53498 -3.57012,-0.0263 z m 34.38991,-2.60649 c 3.35056,-0.52267 4.23237,-0.94718 3.98822,-1.91996 -0.12601,-0.50209 0.0252,-0.85646 0.51077,-1.19652 0.68948,-0.48293 0.68925,-0.48361 -0.45436,-1.3961 -0.62929,-0.50211 -1.14417,-1.14859 -1.14418,-1.43661 -1e-5,-0.51585 -0.58572,-0.7202 -3.20001,-1.11646 -0.616,-0.0934 -1.57376,-0.37454 -2.12836,-0.62481 -0.5546,-0.25028 -1.28828,-0.45505 -1.6304,-0.45505 -0.71428,0 -1.68124,-0.94557 -1.68124,-1.64404 0,-0.2605 -0.20219,-0.75015 -0.44931,-1.08811 -0.53217,-0.72778 -0.34246,-3.67128 0.32152,-4.98877 0.41492,-0.82328 0.36982,-0.88366 -2.15088,-2.88 -1.41607,-1.12149 -3.16001,-2.58829 -3.87541,-3.25955 -1.24217,-1.16551 -1.28545,-1.27029 -0.96109,-2.32713 0.46863,-1.52694 -0.0349,-3.3324 -0.9294,-3.3324 -0.35996,0 -1.02062,-0.288 -1.46811,-0.64 -0.4475,-0.352 -1.02398,-0.64 -1.28108,-0.64 -0.25709,0 -0.84967,-0.26897 -1.31684,-0.597703 -0.6797,-0.478285 -1.16935,-0.555693 -2.45082,-0.387449 -0.88078,0.115635 -1.77186,0.315587 -1.98018,0.444336 -0.20832,0.128746 -0.99969,0.317346 -1.75858,0.419106 -1.1059,0.14829 -1.30274,0.10483 -0.99153,-0.21893 0.21356,-0.222167 0.89756,-0.384797 1.52,-0.361399 0.62244,0.02339 1.13171,-0.07852 1.13171,-0.226483 0,-0.147968 0.7278,-0.365578 1.61734,-0.483578 1.42508,-0.189043 1.59342,-0.289894 1.41615,-0.848416 -0.29572,-0.931728 0.1194,-2.433196 0.94752,-3.427152 0.49563,-0.594876 0.79119,-1.48302 0.92926,-2.792335 0.2015,-1.910852 0.19629,-1.926522 -1.0931,-3.288189 -1.84931,-1.952976 -3.19203,-2.329094 -7.52715,-2.108502 -4.47172,0.227542 -5.56349,-0.173757 -5.58136,-2.051527 -0.006,-0.655481 -0.21713,-1.551782 -0.46866,-1.991782 -0.5261,-0.92032 -0.63497,-2.88 -0.16,-2.88 0.176,0 0.3251,0.468 0.33134,1.04 0.006,0.572 0.21713,1.4 0.46866,1.84 0.25153,0.44 0.46243,1.259501 0.46866,1.821113 0.006,0.561613 0.19134,1.13473 0.41134,1.273594 0.22,0.138861 2.488,0.25536 5.04,0.258883 5.26217,0.0073 5.66567,0.142755 7.73418,2.597011 1.154,1.369197 1.17129,1.430407 1.00617,3.561271 -0.11593,1.496131 -0.35389,2.370758 -0.76774,2.821894 -0.32985,0.359571 -0.76518,1.128381 -0.96739,1.708467 -0.31638,0.907558 -0.27973,1.172496 0.26275,1.899085 0.34674,0.464413 1.09119,0.938624 1.65433,1.053798 0.56315,0.115178 1.27001,0.431175 1.57081,0.702217 0.30079,0.27104 0.93698,0.59015 1.41376,0.70913 0.47678,0.11898 0.99862,0.3822 1.15964,0.58493 0.47068,0.59262 0.7691,3.3241 0.38884,3.55912 -0.54707,0.3381 -0.38247,1.0714 0.28828,1.28429 0.343,0.10886 0.70938,0.46811 0.81419,0.79833 0.10481,0.33022 0.65217,0.89666 1.21637,1.25876 1.39372,0.8945 4.4805,3.52913 4.82754,4.12041 0.18227,0.31054 0.10039,0.787 -0.23192,1.34955 -0.28251,0.47824 -0.49393,1.39412 -0.46983,2.03527 0.0241,0.64116 -0.0464,1.25601 -0.15678,1.36634 -0.11033,0.11033 0.0103,0.50173 0.2681,0.86977 0.25778,0.36805 0.4687,0.92746 0.4687,1.24314 0,0.82586 1.6045,1.45273 6.55835,2.56231 1.45607,0.32614 1.94719,0.58049 2.03801,1.0555 0.1559,0.81527 1.30364,1.95239 2.38601,2.3639 0.99255,0.37737 1.14265,0.98192 0.2438,0.98192 -1.52524,0 -2.10085,0.80768 -1.14245,1.60308 0.41186,0.34181 0.24077,0.514 -1.15178,1.15918 -1.30529,0.60475 -2.12977,0.75033 -4.08372,0.72105 L 225.44,129.84662 Z M 56,128.58519 c 0,-0.20614 0.238317,-0.63814 0.529597,-0.96 0.686777,-0.75888 0.108576,-0.74741 -1.231306,0.0245 -1.076064,0.61987 -3.778291,1.21882 -3.778291,0.83746 0,-0.11504 0.140278,-0.47128 0.311731,-0.79164 0.386055,-0.72135 2.633405,-2.09692 2.503802,-1.53254 -0.124026,0.54007 0.222243,0.64357 1.335289,0.3991 0.899815,-0.19763 1.157213,-0.56595 1.446973,-2.07057 0.124733,-0.64768 0.04441,-0.6699 -1.706272,-0.47183 -2.099027,0.23748 -2.684861,-0.15322 -2.845747,-1.89785 -0.28496,-3.09006 -0.498131,-2.73927 2.25903,-3.71744 2.782154,-0.98704 4.695194,-1.38451 4.695194,-0.97552 0,0.35928 -1.808486,0.97255 -2.84775,0.9657 -0.457738,-0.003 -1.504202,0.32098 -2.325479,0.72 l -1.493225,0.72549 0.160409,1.44 c 0.270941,2.43224 0.150394,2.34668 2.960855,2.10152 1.663052,-0.14507 2.595065,-0.10443 2.73326,0.11917 0.121236,0.19617 -0.06214,0.33931 -0.434684,0.33931 -0.801268,0 -1.291844,2.0086 -0.715844,2.93093 0.202336,0.32398 0.246996,0.58907 0.09924,0.58907 -0.14775,0 -0.461302,0.36 -0.696784,0.8 -0.448643,0.8383 -0.96,1.06478 -0.96,0.42519 z m 57.92,-0.0836 c 0,-0.25214 0.288,-0.54984 0.64,-0.66156 0.352,-0.11173 0.64,-0.39196 0.64,-0.62275 0,-0.23078 0.432,-0.59855 0.96,-0.81725 0.528,-0.21871 0.96,-0.53618 0.96,-0.70549 0,-0.16932 0.18,-0.24294 0.4,-0.1636 0.4462,0.16091 2.16,-0.72766 2.16,-1.11991 0,-0.13805 0.2358,-0.251 0.524,-0.251 0.34362,0 0.14191,0.30365 -0.58597,0.88209 -0.61048,0.48515 -1.06494,1.02515 -1.00991,1.2 0.0838,0.26612 -3.99113,2.71791 -4.51718,2.71791 -0.094,0 -0.17094,-0.2063 -0.17094,-0.45844 z m 82.19687,-0.5223 c -1.39906,-0.71776 -2.20671,-2.39453 -2.52726,-5.24685 -0.32156,-2.86134 0.17514,-4.16582 2.32074,-6.09489 1.79092,-1.61019 2.71223,-1.78723 4.291,-0.82454 1.00088,0.61031 1.00215,0.61022 2.72,-0.21408 2.42635,-1.16426 4.4377,-1.31102 5.69524,-0.41558 0.84602,0.60243 0.98341,0.89949 0.98341,2.12639 0,1.18403 -0.12223,1.47287 -0.72,1.70148 -2.04597,0.78246 -2.31858,2.62931 -0.5362,3.63271 0.68062,0.38316 0.9399,0.72489 0.80894,1.06617 -0.10601,0.27625 -0.19274,0.74825 -0.19274,1.0489 0,0.30065 -0.56415,1.17002 -1.25366,1.93192 -1.37372,1.51795 -1.20889,1.49624 -5.09864,0.67145 -1.48872,-0.31567 -1.79045,-0.29235 -2.31082,0.17858 -0.97585,0.88313 -2.91637,1.08662 -4.18001,0.43834 z M 23.68,128.06937 c 0,-0.1778 1.26,-0.50084 2.8,-0.71787 1.54,-0.21703 3.16,-0.53258 3.6,-0.70123 2.571165,-0.98549 6.286579,-1.85817 7.172662,-1.68472 0.783562,0.15339 0.888272,0.11766 0.507338,-0.17308 -0.37912,-0.28936 -0.253021,-0.32707 0.6,-0.17942 0.594,0.10282 1.422,0.18695 1.84,0.18695 1.156707,0 0.906525,0.54128 -0.36,0.77888 -0.616,0.11556 -1.12,0.31263 -1.12,0.43792 0,0.34256 -3.009315,0.0382 -3.23992,-0.32768 -0.125776,-0.19956 -0.60047,-0.13392 -1.28,0.17699 -1.587629,0.7264 -4.335358,1.50159 -6.52008,1.83945 -1.056,0.1633 -2.388,0.3847 -2.96,0.492 -0.615747,0.11549 -1.04,0.0632 -1.04,-0.12819 z m 13.033334,-2.82271 c -0.106336,-0.10633 -0.382336,-0.1177 -0.613334,-0.0252 -0.255274,0.10215 -0.17945,0.17798 0.193334,0.19333 0.337332,0.0139 0.526333,-0.0617 0.42,-0.16807 z m 63.011085,1.93746 c -0.818185,-0.62473 -1.759795,-1.66873 -2.092467,-2.32 C 96.80503,123.24525 93.214822,120 92.250803,120 c -0.415965,0 -1.290563,0.26756 -1.943552,0.59459 -0.652989,0.32702 -1.558473,0.68355 -2.012192,0.79228 -0.453715,0.10872 -1.225238,0.56866 -1.714493,1.02209 -0.789222,0.73143 -0.837939,0.88569 -0.43192,1.36772 0.2517,0.29883 0.653904,1.16633 0.893789,1.92778 0.48392,1.53609 0.225709,1.96089 -1.197843,1.97064 -1.087325,0.007 -3.604592,-0.72981 -3.604592,-1.05571 0,-0.15833 0.252,-0.18044 0.56,-0.0491 0.979786,0.41768 4.24,0.57692 4.24,0.2071 0,-0.18677 -0.144,-0.42857 -0.32,-0.53734 -0.176,-0.10878 -0.32,-0.50194 -0.32,-0.87369 0,-0.37176 -0.233066,-0.93346 -0.517926,-1.24822 -0.815268,-0.90086 -0.328458,-2.12144 1.086326,-2.72375 0.655379,-0.27901 1.787997,-0.76943 2.516925,-1.08981 2.398045,-1.05402 3.456009,-1.10558 4.315513,-0.21035 0.41754,0.4349 1.289495,1.24605 1.937677,1.80256 l 1.178515,1.01183 1.541485,-1.17086 C 99.941846,120.61103 100.47575,120 99.97687,120 c -0.130051,0 -0.718899,0.36797 -1.308547,0.81772 -0.589651,0.44974 -1.222336,0.72486 -1.405974,0.61137 -0.186896,-0.11551 0.306989,-0.70565 1.121885,-1.34053 0.800672,-0.6238 1.455766,-1.26742 1.455766,-1.43026 0,-0.16284 0.12015,-0.22182 0.267,-0.13106 0.50372,0.31132 0.40591,2.76021 -0.118286,2.96137 -0.422176,0.162 -0.412999,0.24157 0.06848,0.59363 0.3058,0.22361 0.74203,0.33517 0.96941,0.24792 0.48382,-0.18566 0.56343,0.41934 0.0934,0.70984 -0.62457,0.38601 -0.31773,0.86881 0.43249,0.68051 1.02666,-0.25767 1.22923,0.0478 0.63405,0.95616 -0.27508,0.41983 -0.35136,0.76333 -0.16952,0.76333 0.18185,0 0.54769,0.0833 0.81299,0.18509 0.30059,0.11535 0.68959,-0.13119 1.03234,-0.6543 0.53271,-0.81301 0.52537,-0.8666 -0.23355,-1.70509 -0.43095,-0.47614 -1.06046,-1.40569 -1.39892,-2.06568 l -0.61539,-1.19997 0.90851,-0.88003 c 0.77445,-0.75017 0.85576,-0.77641 0.55103,-0.17785 -0.19661,0.3862 -0.50399,0.79273 -0.68307,0.90341 -0.47041,0.29073 0.90424,2.5925 2.24859,3.76515 0.61625,0.53754 1.32387,1.27703 1.57249,1.6433 0.31949,0.47069 0.17874,0.41288 -0.48,-0.19713 l -0.93204,-0.86309 -0.72,1.09861 c -0.396,0.60423 -0.72,1.24462 -0.72,1.42309 0,0.51223 -0.63961,0.37784 -0.85341,-0.17932 -0.13304,-0.3467 -0.42928,-0.44459 -0.94996,-0.3139 -0.54679,0.13723 -0.75663,0.0551 -0.75663,-0.2962 0,-0.26735 0.1286,-0.48609 0.28576,-0.48609 0.15717,0 0.36726,-0.21237 0.46686,-0.47192 0.14832,-0.38654 -0.077,-0.44155 -1.24577,-0.3041 -0.889496,0.10461 -1.426846,0.0413 -1.426846,-0.16809 0,-0.18474 0.18,-0.34502 0.4,-0.35618 0.22,-0.0112 0.05956,-0.15659 -0.356525,-0.3232 -0.655632,-0.26252 -0.700803,-0.37717 -0.338691,-0.85971 0.229811,-0.30624 0.07551,-0.23807 -0.342896,0.15151 l -0.760736,0.70831 0.791917,1.11301 c 1.323088,1.85954 3.173227,3.1491 4.218197,2.94011 0.55134,-0.11027 0.82501,-0.0579 0.70575,0.13507 -0.41385,0.66962 -2.017,0.29074 -3.472597,-0.82069 z m 18.554551,0.58818 c -0.41193,-0.41193 -0.16816,-0.68822 0.79361,-0.89946 0.54592,-0.1199 1.27375,-0.49918 1.61741,-0.84283 0.34365,-0.34366 1.01589,-0.67432 1.49385,-0.73481 0.47796,-0.0605 1.4014,-0.42408 2.05206,-0.80799 1.35545,-0.79973 2.27225,-0.58077 1.13482,0.27104 -0.94065,0.70444 -2.51643,1.44627 -3.13072,1.47384 -0.264,0.0118 -1.21846,0.40802 -2.12103,0.88037 -0.90256,0.47235 -1.73056,0.76928 -1.84,0.65984 z M 123.2,126.78899 c 0,-0.32647 1.73787,-1.35067 2.56071,-1.50913 1.10884,-0.21354 0.6944,0.39637 -0.74174,1.09159 -1.50314,0.72766 -1.81897,0.80015 -1.81897,0.41754 z M 48,126.40456 c -0.44,-0.12352 -1.475478,-0.18604 -2.301062,-0.13896 -1.074048,0.0612 -1.62024,-0.0615 -1.92,-0.43143 -0.263639,-0.32537 -0.278855,-0.43301 -0.04105,-0.29038 0.20784,0.12465 0.478291,0.0642 0.601005,-0.13436 0.146259,-0.23665 0.761581,-0.28958 1.786329,-0.15364 0.92985,0.12335 2.091664,0.049 2.867482,-0.1834 0.94575,-0.28335 1.45649,-0.2957 1.858054,-0.0449 0.304583,0.19021 0.975764,0.28819 1.491514,0.21772 0.51575,-0.0705 0.721728,-0.0339 0.457728,0.0813 -0.264,0.11519 -0.560624,0.33206 -0.659162,0.48191 -0.09854,0.14986 -0.772601,0.32963 -1.49792,0.39949 -0.725318,0.0699 -1.436697,0.19321 -1.580838,0.27412 -0.144144,0.0809 -0.62208,0.046 -1.06208,-0.0775 z M 50.010173,125.76 c 0.420448,0 0.562393,-0.11216 0.373827,-0.29539 -0.377011,-0.36632 -2.064,-0.0664 -2.064,0.36693 0,0.17431 0.227776,0.22952 0.506173,0.12269 0.278393,-0.10683 0.811193,-0.19423 1.184,-0.19423 z m 77.531537,-1.56488 c -0.1883,-0.30468 1.70693,-1.3228 2.42665,-1.30362 0.52251,0.0139 -1.32789,1.58465 -1.86947,1.5869 -0.20962,9.6e-4 -0.46035,-0.1266 -0.55718,-0.28328 z M 118.4,123.87777 c 0,-0.176 0.144,-0.409 0.32,-0.51777 0.176,-0.10878 0.32,-0.0538 0.32,0.12223 0,0.176 -0.144,0.40899 -0.32,0.51777 -0.176,0.10877 -0.32,0.0538 -0.32,-0.12223 z m 14.08,0.0312 c 0,-0.13806 0.432,-0.5062 0.96,-0.8181 1.05995,-0.62612 1.29267,-0.29115 0.3748,0.53951 -0.61397,0.55564 -1.3348,0.70608 -1.3348,0.27859 z M 81.6,123.6252 c 0,-0.11814 0.238477,-0.47832 0.529952,-0.80039 0.511338,-0.56503 0.493526,-0.56742 -0.507062,-0.0683 -1.239808,0.6185 -1.881805,0.24516 -1.335092,-0.77638 0.408071,-0.76248 -0.110681,-1.10682 -0.988377,-0.65606 -0.875786,0.44977 -1.029219,-0.31327 -0.203831,-1.01368 0.654586,-0.55546 0.667184,-0.60602 0.10441,-0.41898 -0.352,0.11698 -1.02223,0.47726 -1.489398,0.80063 -0.8857,0.61305 -1.550602,0.76094 -1.550602,0.3449 0,-0.27562 0.347114,-0.49984 3.04,-1.96364 1.056,-0.57403 1.659382,-0.83018 1.340851,-0.56923 -0.367779,0.30129 -0.455369,0.55095 -0.24,0.68406 0.186531,0.11528 0.339149,0.47562 0.339149,0.80076 0,0.43361 0.170563,0.54655 0.64,0.42379 0.757475,-0.19808 0.820096,0.18685 0.170176,1.04612 -0.726048,0.95992 -0.579146,1.16361 0.453933,0.62938 1.897149,-0.98105 2.588531,-0.36645 1.119405,0.99509 C 82.228477,123.82011 81.6,124.05936 81.6,123.62519 Z M 115.84,123.2 c 0,-0.176 0.036,-0.32156 0.08,-0.32347 0.044,-0.002 0.764,-0.21101 1.6,-0.46469 1.92917,-0.58539 1.9461,-0.39028 0.0393,0.45318 -1.71097,0.75685 -1.71932,0.75847 -1.71932,0.33498 z m 179.96592,-0.56 c -0.66614,-2.14399 -1.30454,-3.26632 -3.87241,-6.80777 -1.5921,-2.19573 -3.29182,-4.78423 -3.77716,-5.75223 -0.48535,-0.968 -1.27083,-2.336 -1.74552,-3.04 -0.4747,-0.704 -0.94178,-1.496 -1.03797,-1.76 -0.0962,-0.264 -1.26741,-2.27302 -2.60271,-4.4645 -1.33531,-2.191468 -2.351,-4.061315 -2.2571,-4.155216 0.22515,-0.225155 1.1945,1.037008 2.31915,3.019712 1.13004,1.992184 2.91563,4.986804 4.10233,6.880004 0.49645,0.792 1.33527,2.3057 1.86405,3.36378 0.52878,1.05808 2.04142,3.34335 3.36142,5.07836 3.16236,4.15662 3.76915,5.21247 3.92968,6.83786 0.13972,1.41465 0.0158,1.76407 -0.28376,0.8 z M 72.32,121.29056 c 0,-0.17019 1.44,-1.26198 3.2,-2.4262 1.76,-1.16422 3.2,-2.17389 3.2,-2.2437 0,-0.24396 -1.77528,0.65792 -3.651872,1.85521 -1.040531,0.66388 -1.95832,1.1406 -2.039533,1.05939 -0.303209,-0.30321 0.233517,-1.07895 1.244695,-1.79897 0.682873,-0.48625 0.9815,-0.58064 0.863414,-0.27291 -0.127171,0.3314 0.352016,0.21044 1.621386,-0.4093 4.030566,-1.96783 3.216448,-0.34985 -1.542116,3.06481 -2.010777,1.44289 -2.895974,1.80103 -2.895974,1.17167 z m 52.16,0.0161 c 0,-0.16133 0.108,-0.35373 0.24,-0.42755 0.132,-0.0738 0.0702,-0.0943 -0.13728,-0.0454 -0.2075,0.0488 -0.9275,0.17034 -1.6,0.27001 -1.08618,0.16097 -1.02792,0.1092 0.52171,-0.46366 1.10177,-0.40729 2.11345,-0.57563 2.74611,-0.45694 1.4516,0.27232 7.07928,-1.64076 8.25407,-2.80591 0.68975,-0.68407 1.18381,-0.88639 2.08,-0.85177 l 1.17539,0.0454 -1.28,0.19935 c -2.43172,0.37871 -0.11704,0.58214 2.56,0.22499 3.9492,-0.52688 7.14859,-0.3878 7.67614,0.33368 0.23734,0.32459 0.35953,0.66215 0.27153,0.75015 -0.088,0.088 -0.33277,-0.0763 -0.54393,-0.36506 -0.34038,-0.46549 -0.48264,-0.47335 -1.25384,-0.0693 -0.77943,0.40839 -0.8699,0.40081 -0.8699,-0.0729 0,-0.45177 -0.2677,-0.50172 -1.84,-0.34337 -4.05314,0.40822 -5.1175,0.62742 -5.8624,1.20733 -0.77642,0.60444 -0.77551,0.60465 0.59533,0.13445 1.60883,-0.55182 1.54239,-0.16763 -0.10629,0.61472 -0.90974,0.4317 -1.23975,0.463 -1.61324,0.15303 -0.41035,-0.34056 -0.40176,-0.46458 0.0681,-0.9838 0.44065,-0.48691 0.45366,-0.59412 0.0721,-0.59412 -0.25608,0 -0.6024,0.13401 -0.7696,0.29779 -0.37708,0.36937 -6.77495,2.58148 -7.47399,2.58418 -0.28051,9.6e-4 -0.92247,0.21709 -1.42659,0.48 -1.05254,0.54894 -1.48342,0.60259 -1.48342,0.1847 z m -28.942051,-0.63762 c -0.0989,-0.16002 0.900601,-1.1041 2.221117,-2.09795 1.320512,-0.99385 2.400934,-1.94292 2.400934,-2.10904 0,-0.16613 0.144,-0.30205 0.32,-0.30205 0.65012,0 0.29103,0.86106 -0.648899,1.55598 -0.532893,0.39398 -0.903133,0.82275 -0.822755,0.9528 0.08038,0.13005 -0.49162,0.57479 -1.271101,0.98831 -0.779485,0.41352 -1.417245,0.87584 -1.417245,1.02738 0,0.36462 -0.553923,0.3537 -0.782051,-0.0154 z M 139.07597,119.19 c 0.2919,-0.44549 0.59488,-0.74582 0.6733,-0.6674 0.2216,0.2216 -0.53312,1.47739 -0.88791,1.47739 -0.17386,0 -0.0773,-0.36449 0.21461,-0.80999 z M 96,118.45577 c 0,-0.14531 0.349494,-0.59255 0.776653,-0.99384 0.545305,-0.51229 0.7556,-0.58618 0.705974,-0.24806 C 97.347078,118.13741 96,119.26578 96,118.45577 Z m 27.84,0.0175 c 0,-0.13567 0.64735,-0.60031 1.43855,-1.03252 1.01965,-0.55701 1.39027,-0.93793 1.27277,-1.30814 -0.25884,-0.81554 0.51281,-1.2341 1.77173,-0.961 0.71208,0.15447 1.07937,0.40326 1.01328,0.68634 -0.0807,0.34583 0.0254,0.33294 0.48,-0.0583 1.12371,-0.96715 1.47031,-1.05679 1.23639,-0.31977 -0.14499,0.45681 -0.0774,0.68342 0.20572,0.69025 0.63522,0.0153 -0.71554,0.94983 -1.37294,0.94983 -0.30369,0 -0.60866,0.16949 -0.67772,0.37665 -0.0702,0.21068 -0.30034,0.26863 -0.52221,0.13151 -0.29095,-0.17982 -0.3031,-0.35787 -0.0456,-0.66816 0.58755,-0.70796 -0.20258,-0.8767 -1.3506,-0.28843 -0.57717,0.29575 -1.1214,0.63398 -1.2094,0.75163 -0.25778,0.34461 -1.71983,1.2968 -1.9912,1.2968 -0.13684,0 -0.2488,-0.11101 -0.2488,-0.24669 z m 7.97711,-0.39331 c -0.0143,-0.088 -0.0715,-0.39271 -0.12699,-0.67712 -0.15323,-0.78527 0.30632,-1.31134 1.04032,-1.19088 0.64528,0.1059 0.64306,0.12664 -0.1146,1.068 -0.42496,0.528 -0.78439,0.888 -0.79873,0.8 z M 148.8,116.97787 c 0,-0.43162 3.17821,-2.54633 3.43739,-2.28715 0.22606,0.22606 -2.17755,2.3599 -2.85896,2.5381 -0.33134,0.0866 -0.57843,-0.0206 -0.57843,-0.25095 z m -90.832701,-0.68186 c -0.206486,-0.45318 -0.273875,-0.98829 -0.149753,-1.18912 0.124121,-0.20084 0.337379,-0.87405 0.473904,-1.49602 0.180105,-0.82051 0.206064,-0.62354 0.09459,0.71771 -0.120653,1.45166 -0.05016,1.88829 0.328323,2.03353 0.265082,0.10172 0.402295,0.31386 0.304919,0.47142 -0.306925,0.49661 -0.663907,0.31421 -1.051978,-0.53752 z M 104.17135,115.52 c 0.11943,-1.05997 0.3927,-1.6296 1.03545,-2.15841 0.48026,-0.39513 1.00586,-0.71913 1.168,-0.72 0.16214,-9.6e-4 0.55119,-0.23362 0.86455,-0.5172 0.64914,-0.58747 4.38867,-0.99949 5.30001,-0.58396 0.39277,0.17908 -0.24766,0.32932 -1.97936,0.46433 -3.5002,0.27289 -5.54963,1.45068 -6.14396,3.53088 l -0.40695,1.42436 z m -3.05135,0.16 c 0,-0.264 0.13948,-0.48 0.30996,-0.48 0.17047,0 0.22707,0.216 0.12576,0.48 -0.10131,0.264 -0.24079,0.48 -0.30996,0.48 -0.0692,0 -0.12576,-0.216 -0.12576,-0.48 z m -7.143891,-0.0506 c -0.115805,-0.11581 -0.05957,-0.39248 0.124957,-0.61483 0.256736,-0.30934 0.180953,-0.36384 -0.322778,-0.23212 -0.854739,0.22352 -0.83415,-0.15064 0.06171,-1.12162 l 0.72,-0.78037 -0.72,0.22131 c -0.396,0.12173 -0.72,0.10171 -0.72,-0.0445 0,-0.38762 3.524934,-3.07909 3.744726,-2.85929 0.202749,0.20275 -1.174112,1.45402 -1.618963,1.47129 -0.150829,0.006 -0.184345,0.2449 -0.07448,0.53121 0.109869,0.2863 0.0273,0.72836 -0.183497,0.98235 -0.289229,0.3485 -0.0953,0.32448 0.79046,-0.0979 1.762733,-0.84059 1.807338,-0.28481 0.106112,1.32222 -1.649011,1.5577 -1.602531,1.52794 -1.908249,1.22222 z m 35.628791,-0.29589 c -0.003,-0.19054 0.5711,-0.80933 1.2751,-1.37508 0.704,-0.56575 1.28,-0.88765 1.28,-0.71534 0,0.17231 -0.468,0.64015 -1.04,1.03966 -0.572,0.3995 -1.1458,0.87731 -1.2751,1.06179 -0.16195,0.23105 -0.23662,0.22762 -0.24,-0.011 z m 71.35306,-0.77736 c -0.44465,-0.83084 0.48829,-3.00247 1.80044,-4.1909 0.81368,-0.73696 1.47406,-1.13692 3.73462,-2.26183 2.05807,-1.02415 1.09734,2.6688 -1.2694,4.87944 -2.38885,2.23129 -3.66216,2.70092 -4.26566,1.57329 z m -51.83796,0.038 c 0,-0.15717 0.22778,-0.37317 0.50617,-0.48 0.78281,-0.30039 0.88624,-0.23526 0.45383,0.28577 -0.44149,0.53196 -0.96,0.63687 -0.96,0.19423 z m 2.24,-0.60131 c 0,-0.39456 1.46798,-1.03587 2.33506,-1.02011 0.68153,0.0124 0.67837,0.027 -0.0951,0.44011 -1.19268,0.63705 -2.24,0.90823 -2.24,0.58 z m -1.92,-0.34743 c 0,-0.32888 0.96924,-0.78292 1.19321,-0.55895 0.0779,0.0779 -0.15873,0.30234 -0.5258,0.49879 -0.36731,0.19657 -0.66741,0.22363 -0.66741,0.0602 z m -74.418838,-1.15532 c -0.341639,-0.2584 -0.93546,-0.4744 -1.319597,-0.48 -0.411597,-0.006 -0.781859,-0.27301 -0.901565,-0.65017 -0.126154,-0.39748 -0.48417,-0.64 -0.944762,-0.64 -0.760854,0 -2.022198,-1.46709 -1.605827,-1.86777 0.121303,-0.11673 0.438371,0.11177 0.704599,0.50777 0.26623,0.396 0.753267,0.72 1.08231,0.72 0.32904,0 0.778115,0.288 0.997942,0.64 0.219828,0.352 0.594832,0.64 0.833338,0.64 0.238509,0 0.837024,0.23827 1.330035,0.5295 0.846026,0.49976 0.965648,0.49352 2.129373,-0.11108 0.678147,-0.35232 1.799632,-0.74612 2.492189,-0.87511 l 1.259197,-0.23453 -1.336893,-0.85439 C 77.84559,108.60274 77.994288,108.16 80.297142,108.16 c 1.349447,0 2.052228,0.15508 2.43433,0.53718 0.464726,0.46473 0.727424,0.48631 1.94745,0.16 2.055478,-0.54975 3.658742,-0.46157 4.853648,0.26695 1.156464,0.70509 2.267062,0.606 3.058947,-0.27291 0.616067,-0.68377 1.029213,-2.29122 0.588889,-2.29122 -0.515222,0 -1.396755,-3.02408 -1.158384,-3.97382 0.380445,-1.51582 1.23898,-1.82172 4.457072,-1.58807 2.910436,0.2113 4.237266,0.64213 5.484406,1.78081 0.48785,0.44542 1.03745,0.59501 1.92,0.52257 L 105.12,103.2 v -2.0777 -2.077699 l 1.65532,-0.889408 c 1.60171,-0.860601 1.72648,-0.877661 3.85184,-0.526665 1.59928,0.264115 2.799,0.268947 4.41238,0.01776 1.31391,-0.204557 2.28897,-0.226692 2.39547,-0.05437 0.22289,0.36065 2.56835,-0.661213 3.16072,-1.377059 0.68776,-0.831107 0.19302,-1.933417 -1.22561,-2.730729 -1.93022,-1.084842 -1.71747,-1.671744 1.18299,-3.263613 2.30381,-1.264406 2.65638,-1.361392 5.15015,-1.416717 2.26484,-0.05025 2.83253,0.04568 3.68689,0.623005 0.6694,0.452345 1.01146,0.947177 1.01462,1.467795 0.004,0.729574 0.14311,0.796762 1.95152,0.945392 1.07071,0.088 2.17531,0.349949 2.45466,0.582112 0.46855,0.389395 1.07184,2.139504 0.93001,2.697888 -0.0335,0.132 0.50654,0.24 1.20015,0.24 0.69362,0 1.34356,0.133392 1.44432,0.296425 0.26725,0.432429 2.2196,-0.186137 5.21457,-1.65214 0.9375,-0.458896 0.9077,-0.615175 -0.24202,-1.269402 -0.52689,-0.29981 -0.95798,-0.683339 -0.95798,-0.852283 0,-0.53177 3.01294,-3.234835 3.6101,-3.238803 0.31355,-0.0022 1.46069,0.29623 2.54921,0.662924 1.1784,0.396976 2.53371,0.622608 3.3499,0.557696 0.75394,-0.05996 1.37079,-0.0065 1.37079,0.118781 0,0.368973 -2.17404,0.668467 -3.12447,0.430426 -0.48154,-0.120605 -1.37953,-0.298071 -1.99553,-0.394371 -0.616,-0.0963 -1.29369,-0.314423 -1.50598,-0.484717 -0.46293,-0.371347 -0.83766,-0.167421 -2.41933,1.31655 -1.12587,1.056327 -1.16232,1.146768 -0.55291,1.372202 0.89708,0.331853 1.13536,1.130589 0.53513,1.793833 -0.27539,0.304304 -1.44486,1.037533 -2.59881,1.629395 -1.95708,1.003786 -2.81287,1.654077 -1.5381,1.168765 0.42172,-0.16055 0.46962,-0.122086 0.19399,0.155773 -0.48835,0.492301 -1.55399,0.262278 -1.55399,-0.335434 0,-0.343776 -0.48786,-0.519968 -1.76,-0.635616 l -1.76,-0.16 -0.0681,-1.232915 c -0.099,-1.791206 -0.49151,-2.086076 -2.91943,-2.193091 -2.10941,-0.09298 -2.13351,-0.104358 -2.23301,-1.053993 -0.14948,-1.426666 -1.1725,-2.000058 -3.78365,-2.120688 -1.59535,-0.0737 -2.47218,0.03597 -3.02166,0.377932 -0.42576,0.264967 -1.3019,0.755655 -1.94698,1.090416 -0.64508,0.334759 -1.48881,0.846973 -1.87497,1.138253 l -0.70211,0.5296 1.1599,0.684355 c 1.37656,0.812192 1.98375,2.100483 1.49527,3.172576 -0.19007,0.417165 -1.08177,1.073139 -2.07854,1.529072 -1.92084,0.878608 -2.32094,0.955706 -2.4802,0.47793 -0.0697,-0.209162 -0.47123,-0.216051 -1.15542,-0.01984 -0.57671,0.165398 -2.68895,0.273648 -4.69386,0.240553 -3.43524,-0.0567 -3.69177,-0.01651 -4.45173,0.697277 -0.71318,0.669847 -0.78512,0.937517 -0.62206,2.314317 0.12181,1.0285 0.0476,1.72169 -0.21869,2.04255 -0.67499,0.81331 -2.5123,0.58604 -4.2436,-0.52493 -1.45903,-0.93626 -1.8188,-1.01961 -4.889862,-1.13288 -3.058589,-0.1128 -3.341536,-0.0726 -3.658608,0.51986 -0.466848,0.87231 -0.0759,3.0672 0.665897,3.73852 0.740221,0.66989 0.750154,1.07157 0.06219,2.51426 -0.31489,0.66034 -0.773043,1.13087 -1.101117,1.13087 -0.309014,0 -0.640099,0.12661 -0.735744,0.28137 -0.423885,0.68586 -1.525539,0.61257 -2.184528,-0.14533 -0.761738,-0.87608 -1.468102,-0.94391 -4.121782,-0.3958 -1.617376,0.33406 -1.969498,0.31126 -2.899264,-0.18775 -0.616989,-0.33114 -1.525338,-0.52306 -2.178298,-0.46024 l -1.12,0.10775 1.52,0.74854 c 0.836,0.4117 1.52,0.85077 1.52,0.97572 0,0.29232 -2.277459,1.14808 -2.78983,1.04828 -0.214407,-0.0418 -0.964669,0.21733 -1.667252,0.57576 -1.520854,0.77589 -1.939916,0.80348 -2.761756,0.18187 z M 127.68,112.36075 c 0,-0.7203 2.92815,-2.90323 4.60218,-3.43092 1.42512,-0.44923 1.79681,-0.70386 1.79292,-1.22827 -0.007,-0.91206 -0.31156,-1.27181 -1.47634,-1.7425 -0.7518,-0.3038 -1.31677,-0.31964 -2.26768,-0.0636 -1.52296,0.41009 -5.03358,2.62039 -5.31124,3.34399 -0.41292,1.07604 -2.19499,1.79808 -4.44095,1.79934 -1.17762,6.4e-4 -2.2272,-0.13809 -2.33241,-0.30832 -0.23962,-0.38771 -2.00988,-0.0798 -2.96648,0.51588 -0.6216,0.38711 -0.72,0.38507 -0.72,-0.0149 0,-0.28271 0.65122,-0.6542 1.67064,-0.95304 1.46304,-0.42887 1.73459,-0.43186 2.1852,-0.0241 0.60675,0.5491 2.98175,0.61448 4.3972,0.12105 0.54369,-0.18953 1.36883,-0.8432 1.83364,-1.45259 0.4648,-0.60939 1.44545,-1.49697 2.17921,-1.97239 0.73376,-0.47543 1.40611,-0.94289 1.49411,-1.03879 0.42889,-0.46743 3.42082,-0.77981 4.40024,-0.45942 1.28175,0.41928 1.59563,0.7313 1.73266,1.72237 0.24607,1.77969 2.71561,0.92479 5.2271,-1.80949 1.45458,-1.58362 5.14916,-2.9815 8.46503,-3.20284 1.91818,-0.12804 3.034,-0.37466 3.83593,-0.84781 0.86996,-0.51328 0.99907,-0.69262 0.55959,-0.77726 -0.31421,-0.0605 -0.75763,0.0446 -0.98537,0.23363 -0.22773,0.18901 -0.50882,0.2489 -0.62462,0.13309 -0.64429,-0.64428 0.2123,-1.077238 2.47779,-1.252387 0.86259,-0.06669 1.91908,-0.351062 2.34776,-0.631945 1.39861,-0.916404 1.14161,-0.213348 -0.28635,0.783331 -2.48572,1.734981 -2.69954,1.949661 -1.27884,1.284001 2.36528,-1.108228 1.77042,-0.47841 -0.76288,0.80772 -1.91231,0.97086 -2.48925,1.13976 -2.85537,0.83591 -0.57686,-0.47875 -3.39596,-0.18328 -6.16214,0.64584 -2.62327,0.78629 -3.81229,1.4257 -4.44402,2.38984 -0.28573,0.43609 -1.24533,1.32568 -2.13243,1.97687 -0.8871,0.65119 -1.44668,1.2394 -1.24349,1.30713 0.20317,0.0677 0.36941,0.38712 0.36941,0.70979 0,0.32266 0.18,0.6593 0.4,0.74807 0.26003,0.10492 0.22201,0.17024 -0.10863,0.18666 -0.27975,0.0139 -0.66333,-0.31425 -0.8524,-0.72921 -0.82779,-1.8168 -4.93681,-0.8452 -7.49556,1.77237 -0.91849,0.9396 -1.22341,1.09484 -1.22341,0.62286 z m -66.859715,-1.05919 c -0.01338,-0.56556 0.181501,-0.92248 0.571152,-1.04615 0.592336,-0.188 1.328563,-1.42722 1.328563,-2.23623 0,-0.46358 0.685373,-0.82354 1.546173,-0.81207 0.441475,0.006 0.415165,0.10276 -0.152093,0.56 -0.377258,0.30409 -0.77887,0.864 -0.892477,1.24426 -0.113609,0.38025 -0.568691,0.92865 -1.011293,1.21865 -0.442604,0.29001 -0.931862,0.84289 -1.087238,1.22863 -0.26872,0.66712 -0.283494,0.65945 -0.302787,-0.15709 z M 93.76,111.55918 c 0,-0.0665 0.252,-0.31845 0.56,-0.56 0.507539,-0.39804 0.518858,-0.38672 0.120819,0.12082 -0.418038,0.53304 -0.680819,0.70255 -0.680819,0.43918 z m 69.00131,-0.77235 c -0.23012,-0.37233 0.48357,-0.99299 2.35869,-2.05122 1.32556,-0.74808 1.6123,-0.79144 3.608,-0.54557 3.51816,0.43345 3.81703,1.00287 0.42108,0.8023 -2.98097,-0.17606 -3.81827,0.0528 -5.51532,1.50753 -0.37837,0.32434 -0.76979,0.45308 -0.87245,0.28696 z m -5.84593,-1.12552 c -1.1264,-1.03227 -1.14329,-1.08217 -0.67686,-2 0.26311,-0.51772 0.5779,-1.62531 0.69953,-2.46131 l 0.22117,-1.52 h -1.52361 c -1.12845,0 -1.43026,-0.0934 -1.16367,-0.35995 0.23225,-0.23225 0.88649,-0.28098 1.8442,-0.13736 l 1.48426,0.22258 -0.22631,1.81736 c -0.12447,0.99955 -0.42163,2.1162 -0.66036,2.48144 -0.38578,0.59022 -0.34704,0.7458 0.34835,1.39909 0.69372,0.65171 0.98039,0.71028 2.52941,0.51674 2.24456,-0.28044 2.59681,0.24208 0.4909,0.72818 -2.15402,0.49721 -2.05247,0.51792 -3.36701,-0.68677 z m 65.70212,-1.39048 c -0.26128,-0.26128 3.75789,-3.99638 4.78894,-4.45045 0.42413,-0.18679 1.52319,-1.07572 2.44235,-1.97541 1.6385,-1.60378 2.67195,-2.161159 2.82747,-1.52497 0.043,0.176 -0.17176,0.36814 -0.4773,0.42698 -0.30554,0.0588 -1.15102,0.75302 -1.87884,1.54261 -0.72782,0.78959 -1.94417,1.79947 -2.703,2.24417 -0.75883,0.44471 -1.63111,1.12293 -1.9384,1.50716 -0.80326,1.00437 -2.81866,2.47247 -3.06122,2.22991 z m -154.627433,-0.4469 c -0.293907,-0.47556 -0.06016,-0.64391 0.453363,-0.32654 0.275114,0.17004 0.307844,0.33495 0.09284,0.46783 -0.182627,0.11287 -0.428422,0.0493 -0.546208,-0.14129 z M 199.92,107.59017 c -0.97796,-0.12523 -1.21795,-0.71017 -0.29137,-0.71017 0.32375,0 0.74324,-0.33931 0.93219,-0.75402 0.23268,-0.51068 0.7881,-0.86685 1.72104,-1.10366 2.34548,-0.59535 2.00494,-0.17827 -0.60186,0.73713 -0.22,0.0772 -0.4,0.49648 -0.4,0.93162 0,0.92999 -0.18153,1.05 -1.36,0.8991 z m -12.72,-0.32432 c 0,-0.16912 0.23261,-0.50054 0.51691,-0.73648 0.44721,-0.37116 0.50114,-0.34766 0.4,0.1743 -0.12053,0.62195 -0.91691,1.11024 -0.91691,0.56218 z m 3.99082,-0.52862 c -0.59604,-0.45058 -0.56569,-0.47744 0.55029,-0.48706 0.64962,-0.006 1.27012,0.13383 1.37889,0.30983 0.10877,0.176 0.0571,0.32 -0.11494,0.32 -0.17199,0 -0.50862,0.0752 -0.74807,0.16706 -0.23944,0.0919 -0.71922,-0.0475 -1.06617,-0.30983 z m -6.15539,-1.47331 c 0.0864,-0.37153 -0.4376,-0.76245 -1.43543,-1.07079 -0.40003,-0.12362 -0.54537,-0.473 -0.50879,-1.22309 l 0.0512,-1.05004 0.12649,1.00541 c 0.0993,0.78921 0.25253,0.97245 0.71267,0.85212 0.3224,-0.0843 0.68195,0.002 0.79899,0.19103 0.14422,0.23334 0.46439,0.17948 0.99337,-0.16712 0.42931,-0.2813 0.70745,-0.62975 0.61809,-0.77434 -0.24735,-0.40021 0.2544,-0.57376 0.93929,-0.32487 0.53388,0.19401 0.45936,0.31605 -0.58833,0.96356 -0.80988,0.50053 -1.07243,0.82005 -0.80809,0.98342 0.27832,0.17201 0.19264,0.34846 -0.29623,0.61009 -0.50958,0.27272 -0.66589,0.27392 -0.60324,0.005 z M 198.72,104.9994 c 0,-0.27099 2.86984,-1.6394 3.43816,-1.6394 0.15373,0 0.5276,-0.18141 0.8308,-0.40311 0.46718,-0.34161 0.33005,-0.38552 -0.89884,-0.28778 -2.97846,0.23688 -0.86531,-1.0295 2.89501,-1.73494 1.23917,-0.23247 1.46003,0.0597 0.37487,0.49586 -0.60829,0.24449 -0.62703,0.29255 -0.12082,0.30968 1.10282,0.0373 -0.0366,0.89279 -2.38385,1.78971 -1.21985,0.46613 -2.13785,0.97705 -2.04,1.13538 0.0979,0.15833 -0.0692,0.19304 -0.37121,0.0772 -0.37255,-0.14296 -0.47471,-0.0903 -0.31773,0.16367 0.15364,0.24858 -0.0438,0.37438 -0.5875,0.37438 -0.45039,0 -0.81889,-0.12627 -0.81889,-0.2806 z m 5.52,-3.13133 c -0.22,-0.0888 -0.58,-0.0888 -0.8,0 -0.22,0.0888 -0.04,0.1614 0.4,0.1614 0.44,0 0.62,-0.0726 0.4,-0.1614 z m -83.6,1.27448 c 0,-0.39101 -0.23311,-0.45005 -1.12,-0.28367 -1.44332,0.27077 -1.43765,-0.18887 0.0109,-0.87962 1.31829,-0.62865 1.70322,-0.68535 1.19371,-0.17584 -0.27124,0.27124 -0.24704,0.47982 0.0954,0.82224 0.39841,0.39841 0.57847,0.37359 1.36785,-0.18849 0.49997,-0.35602 1.09388,-0.87002 1.3198,-1.14224 0.55584,-0.66974 1.0914,-0.62764 0.82768,0.0651 -0.17094,0.449 -0.13333,0.48072 0.18976,0.16 0.22163,-0.22 0.55416,-0.39521 0.73896,-0.38936 0.5981,0.019 -1.15478,1.26936 -1.77945,1.26936 -0.3325,0 -0.60455,0.216 -0.60455,0.48 0,0.264 -0.108,0.48992 -0.24,0.50204 -0.132,0.0121 -0.636,0.0743 -1.12,0.13817 -0.62997,0.0831 -0.88,-0.0242 -0.88,-0.37766 z m 73.20373,-0.009 c 0.39805,-0.0765 0.97405,-0.0736 1.28,0.006 0.30595,0.0801 -0.0197,0.14272 -0.72373,0.13917 -0.704,-0.004 -0.95432,-0.0691 -0.55627,-0.14563 z m -80.07537,-0.40015 c -0.0776,-0.12551 1.04081,-0.70658 2.4853,-1.29126 1.44449,-0.58469 3.20234,-1.31123 3.90634,-1.614538 1.87894,-0.80952 2.94929,-1.093258 2.55855,-0.678247 -0.4907,0.521178 -8.78933,3.844315 -8.95019,3.584045 z m 55.19164,0.18567 c 0,-0.0665 0.252,-0.31845 0.56,-0.56 0.50754,-0.39804 0.51886,-0.38672 0.12082,0.12082 -0.41804,0.53304 -0.68082,0.70255 -0.68082,0.43918 z M 181.1733,102.16 c -0.43462,-0.37011 -0.71877,-1.10255 -0.83799,-2.160004 -0.12658,-1.122656 -0.0909,-1.409062 0.11966,-0.96 0.16502,0.352 0.31017,1.108004 0.32254,1.680004 0.0264,1.22081 0.21468,1.28529 1.02495,0.35103 0.65527,-0.75552 0.7827,-0.57494 0.27014,0.3828 -0.2648,0.49476 -0.2335,0.57573 0.16362,0.42333 0.35373,-0.13573 0.43571,-0.0442 0.29317,0.32721 -0.25299,0.65928 -0.54086,0.64986 -1.35609,-0.0444 z m 4.25418,0.26026 c 0.10188,-0.16486 0.65038,-0.52367 1.21888,-0.79738 l 1.03364,-0.49764 -0.89784,0.79738 c -0.87967,0.78124 -1.72096,1.09028 -1.35468,0.49764 z m -20.9539,-0.828 c -0.22263,-0.26825 -0.34826,-0.52541 -0.27918,-0.57146 0.0691,-0.046 0.8816,-0.54062 1.8056,-1.09905 1.87805,-1.135011 2.34052,-0.694573 0.55064,0.52441 -1.27305,0.867 -1.28827,1.1672 -0.035,0.69071 1.25455,-0.47698 1.02319,-0.0589 -0.26534,0.47946 -1.35977,0.56814 -1.28436,0.56916 -1.7767,-0.0241 z M 159.68,101.44 c 0,-0.176 -0.216,-0.32 -0.48,-0.32 -0.264,0 -0.48,-0.15053 -0.48,-0.3345 0,-0.2115 -0.42884,-0.25405 -1.16626,-0.11571 -0.83522,0.15669 -1.10235,0.11539 -0.94111,-0.1455 0.12382,-0.20036 0.50464,-0.36429 0.84626,-0.36429 0.34161,0 0.62111,-0.201741 0.62111,-0.448304 0,-0.246567 0.63806,-0.712212 1.41792,-1.034762 0.88652,-0.366672 1.27629,-0.676531 1.04,-0.826797 -0.5909,-0.375782 2.12867,-0.291245 3.25433,0.101165 1.24157,0.432813 1.29004,0.85424 0.12775,1.110589 -1.32961,0.293251 -1.57743,0.404989 -0.96,0.432841 0.308,0.01389 0.56,0.186896 0.56,0.384445 0,0.245633 0.15419,0.231213 0.48773,-0.0456 0.26826,-0.22263 0.56859,-0.323929 0.66741,-0.225107 0.0988,0.09882 -0.13897,0.350208 -0.52843,0.55864 -0.55222,0.29554 -0.76227,0.29132 -0.95417,-0.0192 -0.18175,-0.294091 -0.63529,-0.13546 -1.73534,0.60696 -1.63178,1.10126 -1.7772,1.15732 -1.7772,0.6851 z m 3.02143,-2.849962 c 0.0986,-0.159478 0.50306,-0.227414 0.89889,-0.150973 0.66861,0.129123 0.6645,0.114858 -0.0579,-0.20103 -0.60764,-0.265706 -0.88489,-0.232711 -1.26857,0.150973 -0.30132,0.301318 -0.34818,0.490988 -0.12131,0.490988 0.20333,0 0.45033,-0.13048 0.54889,-0.289958 z M 147.2,100.82995 c 0,-0.15952 -0.30728,-0.20968 -0.68284,-0.11147 -1.30723,0.34185 -0.43799,-0.67519 1.34631,-1.575226 2.04665,-1.032374 2.67452,-1.130214 1.62108,-0.252611 -0.73834,0.615097 -0.74015,0.629353 -0.08,0.629353 0.96481,0 0.83393,0.541614 -0.26866,1.111784 -1.05708,0.54664 -1.93589,0.6366 -1.93589,0.19817 z m -32.21608,-0.25922 c 0.1012,-0.16374 0.77191,-0.49174 1.49048,-0.728884 0.88644,-0.29255 1.17452,-0.514909 0.89604,-0.691613 -0.31664,-0.200915 -0.30074,-0.262553 0.0696,-0.269705 0.264,-0.0051 0.82652,-0.101988 1.25004,-0.215309 0.5399,-0.144458 0.70162,-0.09533 0.54111,0.164371 -0.28713,0.464592 0.0731,0.468099 1.37743,0.01341 0.56325,-0.196349 1.08805,-0.293034 1.16623,-0.214854 0.16911,0.169107 -4.35,1.723574 -5.89485,2.027674 -0.63958,0.12591 -1.00499,0.0912 -0.89604,-0.0851 z m 9.70897,-0.2283 c -0.21417,-0.558107 0.56872,-2.650926 0.83154,-2.222894 0.0947,0.154252 0.22246,0.782272 0.28389,1.395596 0.0834,0.833028 -0.0198,1.140578 -0.40805,1.215708 -0.28586,0.0553 -0.60418,-0.11947 -0.70738,-0.38841 z m 19.16874,-0.14743 c -0.0969,-0.15675 0.14663,-0.48885 0.54112,-0.738002 1.01713,-0.642403 4.06764,-1.857002 4.66392,-1.857002 0.79091,0 0.0702,0.470343 -1.9341,1.262167 -1.00508,0.397078 -1.99471,0.923533 -2.19918,1.169897 -0.42672,0.51417 -0.81793,0.57365 -1.07176,0.16294 z M 169.36,99.12944 c -0.396,-0.190986 -0.72,-0.541239 -0.72,-0.778343 0,-0.237107 -0.3312,-0.431101 -0.736,-0.431101 -0.4048,0 -0.88508,-0.149078 -1.06729,-0.331286 -0.1822,-0.182205 -1.24845,-0.398854 -2.36944,-0.48144 -1.12098,-0.08258 -2.17499,-0.286995 -2.34225,-0.45425 -0.38885,-0.388851 4.31278,-0.04393 4.73898,0.347664 0.1672,0.153623 0.61864,0.279312 1.0032,0.279312 0.39269,0 0.92898,0.350692 1.22337,0.8 0.39555,0.603674 0.80187,0.8 1.65569,0.8 0.67286,0 1.05134,0.129712 0.93374,0.32 -0.25343,0.410068 -1.39545,0.375335 -2.32,-0.07056 z m 15.46884,0.117212 c -0.0847,-0.137075 0.27013,-0.499788 0.78856,-0.806032 1.14946,-0.679001 1.20547,-0.544601 0.15403,0.36961 -0.43371,0.37711 -0.85788,0.573498 -0.94259,0.436422 z M 143.04,98.563184 c 0,-0.254823 3.88523,-2.243188 4.38315,-2.243188 0.43895,0 -0.45743,0.711124 -1.97831,1.56946 -1.84404,1.04071 -2.40484,1.19782 -2.40484,0.673728 z m -0.96,-0.637856 c 0,-0.438983 2.88995,-2.34481 3.14249,-2.072368 0.11963,0.129062 0.0298,0.301497 -0.19954,0.383193 -0.22937,0.0817 -0.73337,0.473402 -1.12,0.870451 -0.784,0.805146 -1.82295,1.271757 -1.82295,0.818724 z m 40.73955,-0.143072 c -0.43785,-0.498775 -0.0588,-1.142458 1.02045,-1.732746 0.53325,-0.291664 0.54974,-0.351674 0.0989,-0.359782 -0.29762,-0.0053 -0.62985,-0.153296 -0.73829,-0.328765 -0.12961,-0.209715 0.0747,-0.215658 0.59632,-0.01734 0.59171,0.224963 0.89279,0.182061 1.18389,-0.168701 0.21472,-0.258714 0.472,-0.388781 0.57174,-0.28904 0.0997,0.09974 -0.46078,0.765686 -1.2456,1.479878 -1.08585,0.988122 -1.19747,1.165072 -0.46695,0.740237 l 0.96,-0.558291 -0.77578,0.846147 c -0.42668,0.465383 -0.78668,0.840669 -0.8,0.833975 -0.0133,-0.0067 -0.19542,-0.2072 -0.40467,-0.445568 z m -41.20661,-1.121322 c -0.23226,-0.375802 0.0325,-0.528067 1.42706,-0.820688 1.27716,-0.267987 1.22971,-0.140115 -0.22184,0.597882 -0.58121,0.295497 -1.10092,0.391574 -1.20522,0.222806 z m 44.38605,-1.700938 c 0.0728,-0.22 0.55278,-0.611987 1.06667,-0.871084 0.51389,-0.259095 1.47434,-0.801136 2.13434,-1.204538 0.66,-0.403401 1.19555,-0.623414 1.19011,-0.488918 -0.0166,0.409325 -2.73664,2.32454 -3.30143,2.32454 -0.29077,0 -0.52868,0.144 -0.52868,0.32 0,0.176 -0.156,0.32 -0.34667,0.32 -0.19066,0 -0.28712,-0.18 -0.21434,-0.4 z m -1.56221,-1.589929 c -0.085,-0.137539 0.10595,-0.266682 0.42433,-0.286982 1.03675,-0.06611 1.19785,-0.122762 2.93505,-1.032144 0.94389,-0.494106 1.78868,-1.175703 1.87732,-1.51466 0.0886,-0.338956 0.36544,-0.616284 0.6151,-0.616284 0.35478,0 0.37912,-0.139805 0.11142,-0.64 -0.45132,-0.843299 -0.7696,-0.814173 -3.5266,0.32272 -1.28404,0.529497 -2.38669,0.910656 -2.45033,0.84702 -0.11789,-0.117894 3.92985,-1.865542 5.27938,-2.279423 0.59278,-0.181796 0.77867,-0.08924 0.92206,0.459091 0.12697,0.485555 0.33136,0.621571 0.69754,0.464205 0.28487,-0.122423 1.37999,-0.294336 2.43359,-0.382032 1.84182,-0.153303 1.89732,-0.13617 1.44,0.444486 -0.78353,0.994864 -2.69264,2.669529 -3.03564,2.662864 -0.176,-0.0034 0.328,-0.57569 1.12,-1.271709 0.792,-0.696019 1.32306,-1.265882 1.18013,-1.266358 -0.62147,-0.0019 -3.42013,1.057132 -3.42013,1.294406 0,0.143882 -0.31611,0.36193 -0.70245,0.48455 -0.7907,0.25096 -3.84626,2.05832 -4.10741,2.429524 -0.21486,0.305408 -1.5873,0.214128 -1.79336,-0.119274 z m 1.80894,-1.954858 c 1.11592,-0.745884 2.23428,-1.26271 2.23428,-1.032528 0,0.151264 -2.88611,1.777316 -3.15459,1.777316 -0.10669,0 0.30745,-0.335156 0.92031,-0.744788 z m -24.43383,-1.191571 c -0.7418,-0.583497 -1.00975,-0.631219 -1.86676,-0.332464 -1.27845,0.445671 -5.17692,0.468579 -4.90513,0.02883 0.10877,-0.176 0.75429,-0.32 1.43447,-0.32 0.68019,0 1.96801,-0.168803 2.86182,-0.37512 1.50531,-0.347468 1.67966,-0.323878 2.36503,0.32 0.84212,0.79112 1.1543,0.838307 2.24834,0.339834 0.86204,-0.392771 1.49034,-1.514429 1.49034,-2.660589 0,-0.817629 0.75394,-1.629248 1.23645,-1.331043 0.28828,0.178173 3.2796,-1.974758 3.70892,-2.669405 0.11067,-0.179078 -0.003,-0.653667 -0.25308,-1.054636 -0.24987,-0.400973 -0.54447,-1.218141 -0.65468,-1.81593 -0.45785,-2.483616 3.66937,-5.649357 8.34006,-6.397152 3.9686,-0.635385 4.78686,-0.657094 5.51608,-0.146326 0.38054,0.266541 1.78396,0.588931 3.11871,0.716429 2.39538,0.228803 3.30754,0.726441 3.30754,1.804448 0,0.202502 0.55892,0.535641 1.24204,0.74031 1.22282,0.366368 2.43454,1.329181 1.6728,1.329181 -0.19994,0 -0.61357,-0.128506 -0.91918,-0.285568 -0.30562,-0.157063 -0.95455,-0.443293 -1.44209,-0.636067 -0.48753,-0.192775 -1.01865,-0.698282 -1.18025,-1.123348 -0.40572,-1.067097 -0.65232,-1.166387 -2.95425,-1.189446 -1.11049,-0.01114 -2.30707,-0.20169 -2.65907,-0.423478 -1.33693,-0.842372 -2.52276,-0.800413 -7.42639,0.262761 -2.46036,0.533443 -5.63092,2.876451 -6.02679,4.453738 -0.19804,0.789027 0.31036,2.461408 0.74826,2.461408 0.149,0 0.83656,-0.427994 1.52792,-0.951098 1.3104,-0.991507 2.81144,-1.415667 1.577,-0.445629 -0.62982,0.494925 -0.62858,0.499517 0.078,0.288899 0.54593,-0.162736 0.67553,-0.103382 0.54081,0.24769 -0.12772,0.332842 0.16311,0.52551 1.04201,0.690285 0.99581,0.186691 2.00386,0.608656 3.27252,1.369853 0.0733,0.044 0.0552,0.158172 -0.0404,0.253715 -0.0955,0.09554 -0.68035,-0.06788 -1.29956,-0.363165 -1.17629,-0.560934 -3.4143,-0.392064 -2.47746,0.186934 0.32296,0.1996 0.1455,0.358813 -0.65669,0.589156 -0.60458,0.173599 -0.8415,0.328627 -0.52649,0.344499 0.31501,0.01587 1.13517,-0.258068 1.82258,-0.608759 1.41594,-0.722358 1.94863,-0.408176 0.86368,0.509402 -1.8331,1.550307 -1.71208,1.522214 -2.84463,0.660384 -1.54801,-1.177968 -2.55669,-1.347302 -3.27798,-0.550291 -0.58887,0.650691 -0.58442,0.658115 0.39512,0.658115 1.52402,0 1.50154,0.529894 -0.0247,0.582822 -0.74073,0.0257 -1.85078,0.252855 -2.46678,0.504813 -0.616,0.251958 -1.372,0.537795 -1.68,0.635194 -0.38308,0.121139 -0.5605,0.508812 -0.56159,1.227129 -0.003,2.291792 -2.59073,3.791862 -4.26652,2.473683 z m 12.00241,-7.329881 c 0.92709,-0.563795 0.96774,-0.648483 0.40773,-0.849341 -0.34212,-0.122707 -0.7545,-0.296521 -0.91641,-0.386256 -0.16191,-0.08973 -0.20243,0.07647 -0.09,0.369344 0.14605,0.380615 0.0323,0.532493 -0.39896,0.532493 -0.33181,0 -0.67052,-0.18 -0.7527,-0.4 -0.0989,-0.264746 -0.23188,-0.199725 -0.39329,0.192294 -0.15704,0.381367 -0.0848,0.693012 0.20274,0.875101 0.62819,0.397767 0.7816,0.371395 1.94093,-0.333635 z m 5.7057,6.394457 c 0,-0.296848 1.6314,-1.288217 2.11989,-1.288217 0.12742,0 -0.10653,0.36 -0.51989,0.8 -0.75822,0.807094 -1.6,1.063948 -1.6,0.488217 z M 176,87.084989 c 0,-0.179971 0.15262,-0.421543 0.33915,-0.536826 0.21656,-0.13384 0.14475,-0.351753 -0.19865,-0.602854 -0.47077,-0.344234 -0.33614,-0.479997 1.08017,-1.08928 1.87912,-0.808375 2.19156,-0.857335 1.70129,-0.266589 -0.63603,0.766365 -0.0641,0.771299 1.4836,0.0128 1.69985,-0.833094 1.99444,-0.899315 1.99444,-0.448333 0,0.172647 -0.35409,0.402775 -0.78687,0.511395 -0.43278,0.108621 -0.95442,0.399367 -1.15919,0.646096 -0.51646,0.622308 -0.1731,0.560599 1.05833,-0.190198 1.29483,-0.789462 2.12154,-0.876691 1.52773,-0.161197 -0.2191,0.264 -0.59673,0.48 -0.83918,0.48 -0.24245,0 -0.44082,0.147565 -0.44082,0.32792 0,0.396 -1.45508,1.051667 -2.56,1.153552 -0.44,0.04057 -1.34,0.167587 -2,0.282253 -0.74024,0.128608 -1.2,0.08312 -1.2,-0.118733 z m 3.52,-1.004992 c 0.264,-0.170611 0.336,-0.310199 0.16,-0.310199 -0.176,0 -0.536,0.139588 -0.8,0.310199 -0.264,0.170611 -0.336,0.310198 -0.16,0.310198 0.176,0 0.536,-0.139587 0.8,-0.310198 z m 1.28,1.012867 c 0,-0.170643 0.43161,-0.460717 0.95913,-0.644614 0.52752,-0.183895 1.44467,-0.704695 2.03811,-1.157335 1.01796,-0.776438 2.38162,-0.848643 1.91996,-0.101661 -0.41448,0.670634 -4.9172,2.413786 -4.9172,1.90361 z m 78.56,-0.926592 c -4.63468,-0.333152 -8.95116,-1.994595 -12.94841,-4.983936 -2.36401,-1.767926 -5.01313,-4.81686 -5.94283,-6.839747 -1.32668,-2.886678 -2.38876,-6.47648 -2.38876,-8.07398 0,-2.522736 0.93806,-6.792829 1.82862,-8.323949 0.99249,-1.706355 5.36182,-6.327824 7.70415,-8.148723 4.085,-3.175625 4.50015,-3.39552 6.42339,-3.402278 0.99212,-0.0035 2.783,-0.147914 3.97975,-0.32095 2.5722,-0.371914 6.24192,0.245158 7.65113,1.286553 0.47688,0.352407 1.00585,0.640736 1.17549,0.640736 0.16965,0 0.94944,0.48928 1.73287,1.087287 0.78344,0.598009 1.76647,1.269068 2.18451,1.491244 0.41805,0.222176 1.52929,1.028899 2.46942,1.792714 0.94014,0.763814 1.89558,1.388755 2.1232,1.388755 0.22763,0 0.63651,0.339795 0.90863,0.755101 0.27211,0.415305 0.69025,0.955305 0.92918,1.2 0.59051,0.604742 1.84966,3.61031 1.84966,4.415097 0,0.358355 0.36973,1.483658 0.82162,2.500678 0.45189,1.017018 0.88645,2.344074 0.9657,2.949012 0.17651,1.347334 -1.01667,6.283487 -1.78394,7.380111 -0.30786,0.44 -0.93381,1.595856 -1.39101,2.56857 -0.93105,1.980873 -4.68454,6.234969 -6.76299,7.664979 -2.60513,1.792374 -8.13054,3.217043 -11.52938,2.972726 z m 4.76039,-1.400806 c 4.61912,-1.067178 6.46288,-2.099008 9.44375,-5.285024 2.86616,-3.063424 4.99399,-6.908403 5.92193,-10.700889 0.6843,-2.796775 0.65198,-3.510842 -0.25665,-5.669648 -0.42381,-1.006944 -0.87319,-2.406605 -0.99861,-3.110355 -0.4318,-2.422951 -1.72246,-4.274074 -4.30445,-6.173616 -1.3235,-0.973683 -2.47836,-1.857994 -2.56636,-1.965136 -0.088,-0.107142 -1.168,-0.824445 -2.4,-1.594003 -1.232,-0.769562 -2.63324,-1.668685 -3.11388,-1.998051 -1.52295,-1.043645 -4.59784,-1.644499 -7.30317,-1.427091 -4.03971,0.324646 -5.54801,0.573158 -6.29169,1.03664 -0.87136,0.543052 -1.16414,0.563241 -0.85236,0.05877 0.13016,-0.210611 -0.21699,-0.05991 -0.77144,0.334899 -0.55446,0.39481 -1.10017,0.8668 -1.2127,1.04887 -0.11252,0.182071 -0.65181,0.603008 -1.19841,0.935418 -1.32175,0.803805 -5.76599,5.216912 -7.07329,7.023747 -1.20362,1.663542 -1.6776,3.259856 -2.07402,6.985068 -0.34564,3.247975 0.0584,5.047943 2.19995,9.800147 2.34605,5.206061 10.50277,10.619942 16.81101,11.158019 2.72812,0.232701 3.20981,0.196195 6.04039,-0.457766 z M 207.44,82.870298 c -0.396,-0.159322 -0.72,-0.433799 -0.72,-0.609946 0,-0.176147 0.20662,-0.240982 0.45915,-0.144077 0.68754,0.263837 4.77431,-0.758067 7.92879,-1.982604 3.42689,-1.330285 5.37206,-1.702544 5.37206,-1.028077 0,0.308557 -0.57091,0.579645 -1.68,0.797712 -0.924,0.181677 -3.12,0.838848 -4.88,1.460384 -1.76,0.621533 -3.58262,1.216352 -4.05027,1.321821 -0.46765,0.105465 -1.04365,0.255366 -1.28,0.333113 -0.23635,0.07774 -0.75373,0.01101 -1.14973,-0.148326 z m 99.92,-3.986109 c -4.68322,-2.542905 -6.38505,-3.364192 -6.97113,-3.364192 -0.74476,0 -2.46887,-0.886422 -2.46887,-1.269331 0,-0.547293 0.5659,-0.645523 0.96292,-0.167146 0.2175,0.262061 0.60525,0.476477 0.86168,0.476477 0.83364,0 4.686,1.676295 6.74104,2.933255 1.1031,0.67471 2.22856,1.226745 2.50103,1.226745 0.78504,0 1.73333,0.618902 1.73333,1.131258 0,0.712012 -0.56961,0.54807 -3.36,-0.967066 z M 176.08,64.932737 c -1.45355,-0.549351 -0.63068,-0.775123 3.20028,-0.878074 2.15584,-0.05793 4.56772,-0.237955 5.35972,-0.400048 4.37729,-0.895872 9.06935,-1.562144 11.04211,-1.567984 1.23316,-0.0036 2.74516,-0.157052 3.36,-0.340899 0.61484,-0.183849 2.91789,-0.47496 5.11789,-0.646915 2.2,-0.171958 4.252,-0.391242 4.56,-0.487299 0.35725,-0.111418 0.56,-0.0056 0.56,0.292224 0,0.628672 -0.86884,0.807968 -4.98618,1.028963 -1.9216,0.103139 -4.06982,0.318953 -4.77382,0.479587 -0.704,0.160634 -2.288,0.297891 -3.52,0.305014 -1.232,0.0071 -4.688,0.465936 -7.68,1.019575 -2.992,0.553638 -6.67106,1.028941 -8.17568,1.056227 -1.50462,0.0273 -2.87262,0.131091 -3.04,0.230678 -0.16738,0.09959 -0.62832,0.05862 -1.02432,-0.09105 z m 121.2,-20.149385 c 0,-0.185155 0.4514,-0.494006 1.00312,-0.686336 0.55172,-0.19233 2.45972,-1.063254 4.24,-1.935386 1.78028,-0.872131 4.38888,-2.066959 5.79688,-2.655174 1.408,-0.588214 3.424,-1.493382 4.48,-2.011481 1.81423,-0.890106 2.63917,-1.020855 2.22633,-0.352864 -0.10125,0.163836 -0.38637,0.297888 -0.63358,0.297888 -0.24722,0 -2.14672,0.810611 -4.22112,1.801356 -9.16196,4.375815 -11.04923,5.238643 -11.4585,5.238643 -0.23945,0 -0.52436,0.144 -0.63313,0.32 -0.26079,0.421968 -0.8,0.410749 -0.8,-0.01664 z m -86.72,-4.35592 c -0.968,-0.616941 -2.696,-1.554265 -3.84,-2.082947 -1.144,-0.528682 -2.61452,-1.242605 -3.26782,-1.586496 -0.65331,-0.343891 -1.94931,-0.847395 -2.88,-1.118899 -0.9307,-0.271504 -1.98018,-0.669862 -2.33218,-0.885238 -0.352,-0.215376 -1.36,-0.658708 -2.24,-0.985178 -3.04307,-1.128947 -7.36236,-3.275583 -7.9696,-3.9608 -0.33527,-0.378331 -0.45177,-0.687875 -0.25888,-0.687875 0.19289,0 0.43847,0.142003 0.54574,0.315562 0.23589,0.381673 5.77244,3.046102 8.00274,3.851267 6.36239,2.296895 6.37745,2.303187 11.04,4.614521 4.3101,2.136611 5.44,2.809398 5.44,3.239187 0,0.639206 -0.23611,0.564042 -2.24,-0.713104 z m 17.10063,-8.780052 c -0.51735,-0.54681 -1.76508,-1.632852 -2.77275,-2.413426 -1.00766,-0.780575 -4.05086,-3.89754 -6.76267,-6.92659 -5.69251,-6.358441 -16.58002,-17.7004007 -16.8924,-17.5974823 -0.11666,0.038435 -0.29324,-0.1415647 -0.39241,-0.3999999 -0.51923,-1.3530716 1.12665,0.02767 5.42671,4.5525185 2.62509,2.7623207 5.63689,5.9180187 6.69289,7.0126627 1.056,1.094644 3,3.183095 4.32,4.641002 4.92389,5.438312 6.60949,7.119179 8.48,8.456205 2.44034,1.744332 3.40109,2.763478 3.0859,3.273466 -0.17497,0.283104 -0.51255,0.112688 -1.18527,-0.598356 z M 279.36,30.244668 c 0,-0.106206 0.49278,-2.814704 1.09507,-6.018885 0.60228,-3.204181 1.19147,-6.689784 1.30931,-7.745784 0.63994,-5.734725 1.55477,-10.0799992 2.12219,-10.0799992 0.18805,0 0.26247,0.2069932 0.16539,0.4599852 -0.499,1.3003747 -0.88109,3.386053 -1.49856,8.180014 -0.91701,7.119527 -2.4158,14.917185 -2.92808,15.233798 -0.14593,0.09019 -0.26532,0.07708 -0.26532,-0.02913 z m -25.1806,-1.684669 c -0.0681,-1.011076 -1.59782,-7.866166 -2.33856,-10.48 -0.39903,-1.408 -1.13204,-4 -1.62893,-5.759999 -0.91238,-3.2317034 -1.4967,-6.2207013 -1.1559,-5.9127916 0.10179,0.091965 0.26082,0.5239651 0.3534,0.96 0.0926,0.4360352 0.74451,2.7367916 1.44873,5.1127916 0.70422,2.375999 1.35774,4.796135 1.45226,5.378078 0.0945,0.581943 0.38735,1.474792 0.65073,1.984109 0.26338,0.509316 0.4858,1.257181 0.49427,1.661921 0.008,0.40474 0.34845,2.175891 0.75552,3.935891 0.40708,1.76 0.67965,3.308 0.60572,3.44 -0.24165,0.431473 -0.59868,0.252186 -0.63724,-0.32 z"
     id="path817"
     inkscape:connector-curvature="0" />
</svg>
