<?xml version="1.0" encoding="UTF-8" standalone="no"?>
<svg
    xmlns="http://www.w3.org/2000/svg"
    class="category-icon"
    viewBox="0 0 24 24">
    <path
        class="icon-path"
        fill="#999"
        d="M6.96 2c.418 0 .756.31.756.692V4.09c.67-.012 1.422-.012 2.268-.012h4.032c.846 0 1.597 0 2.268.012V2.692c0-.382.338-.692.756-.692s.756.31.756.692V4.15c1.45.106 2.403.368 3.103 1.008c.7.641.985 1.513 1.101 2.842v1H2V8c.116-1.329.401-2.2 1.101-2.842c.7-.64 1.652-.902 3.103-1.008V2.692c0-.382.339-.692.756-.692">
    </path>
    <path
        class="icon-path"
        fill="#999"
        d="M22 14v-2c0-.839-.013-2.335-.026-3H2.006c-.013.665 0 2.161 0 3v2c0 3.771 0 5.657 1.17 6.828C4.349 22 6.234 22 10.004 22h4c3.77 0 5.654 0 6.826-1.172S22 17.771 22 14"
        opacity=".5">
    </path>
    <path
        class="icon-path"
        fill="#999"
        d="M18 16.5a1.5 1.5 0 1 1-3 0a1.5 1.5 0 0 1 3 0">
    </path>
</svg>
